<svg xmlns="http://www.w3.org/2000/svg" viewBox="0 0 416.83 76.72">
    <g id="best-group">
        <path
            d="M5,65.62a3.14,3.14,0,0,1,1.44.27,3.3,3.3,0,0,1,1.15.83A3.22,3.22,0,0,1,8.28,68a3,3,0,0,1,.07,1.45L8.23,71c0,.53-.05,1.07-.05,1.61A3.17,3.17,0,0,1,8,74a3,3,0,0,1-.77,1.16A3.16,3.16,0,0,1,6,75.91a2.59,2.59,0,0,1-1.44,0l-1.26-.1a3.24,3.24,0,0,1-1.41-.32,3.23,3.23,0,0,1-1.13-.87,3.49,3.49,0,0,1-.66-1.25A3,3,0,0,1,.06,72c0-.54,0-1.06,0-1.57s0-1,0-1.57a2.83,2.83,0,0,1,.21-1.41,3.11,3.11,0,0,1,.77-1.13,3.06,3.06,0,0,1,1.18-.67,3,3,0,0,1,1.42-.07l.65,0C4.59,65.62,4.8,65.62,5,65.62Zm.74-10.69a2.88,2.88,0,0,1,1.44.21A3.08,3.08,0,0,1,8.32,56,3.2,3.2,0,0,1,9,58.63c-.12,1.11-.19,2.19-.21,3.25a3.2,3.2,0,0,1-.26,1.45,3.45,3.45,0,0,1-2,1.85,3,3,0,0,1-1.46.09H4.4a2.76,2.76,0,0,1-.65-.07,3.11,3.11,0,0,1-1.41-.27A3.35,3.35,0,0,1,1.2,64.1a3.11,3.11,0,0,1-.69-1.23,2.74,2.74,0,0,1,0-1.45c0-.54.08-1.06.1-1.57s.06-1,.11-1.57a2.63,2.63,0,0,1,.19-1.45,3.39,3.39,0,0,1,.83-1.14A3.29,3.29,0,0,1,3,55a3,3,0,0,1,1.46-.09,3.7,3.7,0,0,0,.66,0A3.81,3.81,0,0,1,5.75,54.93ZM6.56,44.2A2.67,2.67,0,0,1,8,44.38a3.12,3.12,0,0,1,1.14.81,3,3,0,0,1,.67,1.23,2.85,2.85,0,0,1,0,1.45c-.05.54-.09,1.08-.14,1.62s-.09,1.09-.14,1.63a3.29,3.29,0,0,1-.27,1.48,3.2,3.2,0,0,1-.84,1.15,3.57,3.57,0,0,1-1.25.7,3.16,3.16,0,0,1-1.47.13,3,3,0,0,1-.67,0,2.48,2.48,0,0,0-.67,0A2.83,2.83,0,0,1,3,54.33a3.27,3.27,0,0,1-1.14-.8,3.1,3.1,0,0,1-.68-1.2,2.63,2.63,0,0,1,0-1.42c0-.55.09-1.08.12-1.61s.08-1.06.13-1.61a3.05,3.05,0,0,1,.28-1.46,3.49,3.49,0,0,1,.86-1.17,3.85,3.85,0,0,1,1.27-.72,3.25,3.25,0,0,1,1.49-.14l.39,0Zm1-10.76A2.68,2.68,0,0,1,9,33.6a2.92,2.92,0,0,1,1.14.77,2.86,2.86,0,0,1,.67,1.22,2.65,2.65,0,0,1,0,1.45c0,.54-.09,1.08-.14,1.62s-.09,1.08-.14,1.62a3.18,3.18,0,0,1-.26,1.47,3.52,3.52,0,0,1-2.11,2,3.26,3.26,0,0,1-1.49.14,3.69,3.69,0,0,1-.66,0H5.29a2.73,2.73,0,0,1-1.45-.18,3.29,3.29,0,0,1-1.16-.78A2.75,2.75,0,0,1,2,41.69a2.81,2.81,0,0,1,0-1.44c.05-.54.1-1.08.16-1.61s.11-1.06.16-1.6a3.59,3.59,0,0,1,2.44-3.43,3.29,3.29,0,0,1,1.5-.14l.67,0Zm1-10.77A2.62,2.62,0,0,1,10,22.8a2.85,2.85,0,0,1,1.12.77,3,3,0,0,1,.65,1.2,2.77,2.77,0,0,1,0,1.43c-.05.54-.11,1.08-.18,1.63s-.12,1.08-.14,1.62a3.72,3.72,0,0,1-.3,1.5,3.62,3.62,0,0,1-.84,1.2,3.53,3.53,0,0,1-2.76.93,3.78,3.78,0,0,0-.67,0H6.24a2.85,2.85,0,0,1-1.42-.14,2.76,2.76,0,0,1-1.16-.76A2.85,2.85,0,0,1,3,31a2.58,2.58,0,0,1,0-1.43c.05-.54.1-1.07.18-1.58s.12-1,.17-1.59a3.58,3.58,0,0,1,.32-1.48,3.9,3.9,0,0,1,.84-1.22,3.58,3.58,0,0,1,1.25-.78,4,4,0,0,1,1.49-.23,3.64,3.64,0,0,0,.65,0Zm1.23-10.8a2.59,2.59,0,0,1,1.39.11,2.69,2.69,0,0,1,1.11.76,2.78,2.78,0,0,1,.63,1.2,2.68,2.68,0,0,1,0,1.43c-.05.54-.11,1.09-.18,1.64s-.12,1.1-.14,1.64a3.29,3.29,0,0,1-.33,1.46,4.37,4.37,0,0,1-.86,1.2,3.52,3.52,0,0,1-1.25.78,3.31,3.31,0,0,1-1.5.19,3.7,3.7,0,0,1-.66,0,4.56,4.56,0,0,0-.64,0,2.55,2.55,0,0,1-1.4-.11,3,3,0,0,1-1.15-.74,2.8,2.8,0,0,1-.66-1.18,2.42,2.42,0,0,1,0-1.43c0-.54.11-1.08.19-1.6s.15-1.07.2-1.61a3.57,3.57,0,0,1,.31-1.48,4.12,4.12,0,0,1,.86-1.24,3.67,3.67,0,0,1,2.76-1c.21,0,.43,0,.65,0ZM11,.9A2.45,2.45,0,0,1,12.43,1a2.69,2.69,0,0,1,1.06.8,3.06,3.06,0,0,1,.59,1.23,2.6,2.6,0,0,1,0,1.41L13.84,6.1c-.07.56-.13,1.1-.18,1.64a3.78,3.78,0,0,1-.3,1.49,3.56,3.56,0,0,1-.84,1.21,4,4,0,0,1-1.27.82,3.18,3.18,0,0,1-1.49.23H9.13c-.21,0-.43,0-.64.06a4.55,4.55,0,0,1-1.17-.09A2.76,2.76,0,0,1,6.24,11a2.48,2.48,0,0,1-.79-1.45,6.31,6.31,0,0,1,0-1.44c.09-.54.17-1.08.24-1.63l.21-1.62a4.55,4.55,0,0,1,.34-1.5A3.67,3.67,0,0,1,7.05,2.1a4.18,4.18,0,0,1,1.22-.85A3.2,3.2,0,0,1,9.76,1l.63,0ZM13.73,66a3.13,3.13,0,0,1,2.59,1A2.94,2.94,0,0,1,17,68.23,3.22,3.22,0,0,1,17,69.68c-.05.54-.09,1.09-.13,1.64s-.06,1.1-.08,1.64a3.45,3.45,0,0,1-.25,1.47,3.74,3.74,0,0,1-.79,1.2,3.16,3.16,0,0,1-1.21.75,2.85,2.85,0,0,1-1.48.11,2.22,2.22,0,0,1-.63,0,2.29,2.29,0,0,0-.64,0,2.71,2.71,0,0,1-1.42-.25,3.35,3.35,0,0,1-1.11-.87,3.51,3.51,0,0,1-.67-1.25,2.74,2.74,0,0,1,0-1.45c0-.54.06-1.08.1-1.62s.07-1.08.07-1.62A3.06,3.06,0,0,1,9,68a3.2,3.2,0,0,1,.79-1.15A3.32,3.32,0,0,1,11,66.1,3.11,3.11,0,0,1,12.43,66l.65,0A3.51,3.51,0,0,0,13.73,66ZM16.47,33.4a2.82,2.82,0,0,1,1.45.16,3.12,3.12,0,0,1,1.14.79,3.18,3.18,0,0,1,.67,1.24,2.75,2.75,0,0,1,0,1.45c-.05.54-.1,1.08-.14,1.64s-.1,1.1-.14,1.64a3.4,3.4,0,0,1-.27,1.5,3.62,3.62,0,0,1-.84,1.2,3.53,3.53,0,0,1-2.76.93c-.23,0-.46,0-.67,0a2.5,2.5,0,0,0-.67,0,2.79,2.79,0,0,1-1.44-.16A3.12,3.12,0,0,1,11.64,43,3.36,3.36,0,0,1,11,41.73a2.74,2.74,0,0,1,0-1.45c.05-.54.09-1.08.14-1.62s.09-1.08.14-1.62a3.3,3.3,0,0,1,.28-1.49,3.75,3.75,0,0,1,.86-1.21,3.85,3.85,0,0,1,1.27-.78,3.14,3.14,0,0,1,1.53-.16c.23,0,.46,0,.67,0A5,5,0,0,1,16.47,33.4ZM19.57.69A2.34,2.34,0,0,1,21,.83a2.59,2.59,0,0,1,1.07.83,3.23,3.23,0,0,1,.6,1.25,2.81,2.81,0,0,1,0,1.41c-.05.54-.09,1.1-.14,1.66s-.09,1.12-.14,1.66a3.26,3.26,0,0,1-.28,1.48,3.9,3.9,0,0,1-.84,1.22,3.55,3.55,0,0,1-1.24.77,3.17,3.17,0,0,1-1.47.2l-.67,0a5.15,5.15,0,0,0-.67,0,2.62,2.62,0,0,1-1.39-.16,2.87,2.87,0,0,1-1.1-.78,2.72,2.72,0,0,1-.6-2.63c.07-.54.13-1.08.19-1.64s.11-1.1.16-1.64A3.77,3.77,0,0,1,14.77,3a4,4,0,0,1,.81-1.23A3.53,3.53,0,0,1,16.79.92,3.07,3.07,0,0,1,18.3.69Zm2.95,65.43a4.92,4.92,0,0,1,1.2.14,2.77,2.77,0,0,1,1.09.53,3,3,0,0,1,.84,1.5,5.17,5.17,0,0,1,.07,1.46c0,.54-.09,1.09-.14,1.64s-.09,1.1-.14,1.64a3.79,3.79,0,0,1-1.07,2.68,3.24,3.24,0,0,1-1.22.8,3.32,3.32,0,0,1-1.47.19,3.53,3.53,0,0,0-.65,0,2,2,0,0,1-.65,0,2.55,2.55,0,0,1-1.43-.2,3.08,3.08,0,0,1-1.09-.83A3.09,3.09,0,0,1,17.25,73c0-.54.09-1.09.12-1.64s.07-1.1.09-1.64a3.25,3.25,0,0,1,.26-1.46A3.59,3.59,0,0,1,18.55,67a3.69,3.69,0,0,1,1.23-.76,3.07,3.07,0,0,1,1.48-.15ZM25.44,33.4a2.78,2.78,0,0,1,1.44.16,3,3,0,0,1,1.14.79,3.22,3.22,0,0,1,.69,1.24,2.55,2.55,0,0,1,0,1.45c-.05.54-.1,1.08-.16,1.64s-.11,1.1-.16,1.64a3.26,3.26,0,0,1-.26,1.5,3.6,3.6,0,0,1-2.11,2,3.6,3.6,0,0,1-1.5.17H23.19a2.87,2.87,0,0,1-1.46-.16A2.73,2.73,0,0,1,20.59,43a3.17,3.17,0,0,1-.67-1.24,2.81,2.81,0,0,1,0-1.44c.05-.54.1-1.09.14-1.64s.1-1.1.15-1.64a3.62,3.62,0,0,1,1.17-2.69,3.79,3.79,0,0,1,1.25-.75,3.3,3.3,0,0,1,1.51-.2ZM28.11.69a2.5,2.5,0,0,1,1.42.19,3,3,0,0,1,1.09.83,3.24,3.24,0,0,1,.69,2.68c0,.54-.09,1.1-.14,1.66s-.08,1.12-.11,1.66a3.24,3.24,0,0,1-.24,1.46,3.54,3.54,0,0,1-.81,1.2,3.14,3.14,0,0,1-1.23.76,3.07,3.07,0,0,1-1.48.14H26a2.63,2.63,0,0,1-1.43-.17,3.06,3.06,0,0,1-1.1-.81,3,3,0,0,1-.64-1.22,2.88,2.88,0,0,1,0-1.43c.05-.54.1-1.09.14-1.66s.1-1.12.14-1.66a3.5,3.5,0,0,1,.25-1.45,3.76,3.76,0,0,1,.79-1.23,3.54,3.54,0,0,1,1.2-.81A2.84,2.84,0,0,1,26.81.65a2.37,2.37,0,0,1,.65,0A2.85,2.85,0,0,0,28.11.69Zm3.16,65.36a11.22,11.22,0,0,1,1.18.12,2.09,2.09,0,0,1,1.07.51,2.71,2.71,0,0,1,.83,1.46,5.63,5.63,0,0,1,0,1.47l-.21,1.62c-.07.54-.13,1.09-.17,1.63a3.62,3.62,0,0,1-.32,1.48,4.23,4.23,0,0,1-.83,1.23,3.53,3.53,0,0,1-1.21.83,3,3,0,0,1-1.47.23,2.28,2.28,0,0,0-.64,0,2.66,2.66,0,0,1-.63,0,2.78,2.78,0,0,1-1.42-.16,2.55,2.55,0,0,1-1.08-.8,3.06,3.06,0,0,1-.59-1.23,2.75,2.75,0,0,1,0-1.45c.05-.54.1-1.09.16-1.64s.11-1.1.16-1.64a3.24,3.24,0,0,1,.26-1.48,3.53,3.53,0,0,1,.83-1.2,3.91,3.91,0,0,1,1.23-.78A3.07,3.07,0,0,1,30,66.08l.65,0A2.77,2.77,0,0,0,31.27,66.05ZM34.4,33.44a2.78,2.78,0,0,1,1.43.16,2.85,2.85,0,0,1,1.14.77,3.22,3.22,0,0,1,.67,1.22,2.55,2.55,0,0,1,0,1.45c0,.54-.1,1.08-.16,1.62s-.11,1.08-.16,1.62a3.27,3.27,0,0,1-.28,1.5A3.77,3.77,0,0,1,36.2,43a3.66,3.66,0,0,1-1.25.75,3.32,3.32,0,0,1-1.5.2,2,2,0,0,0-.65,0,2.32,2.32,0,0,1-.65,0,2.79,2.79,0,0,1-1.44-.16A3,3,0,0,1,29.57,43a3.08,3.08,0,0,1-.69-1.24,2.7,2.7,0,0,1,0-1.44c0-.54.09-1.09.14-1.64s.09-1.1.14-1.64a3.3,3.3,0,0,1,.28-1.49,3.61,3.61,0,0,1,.86-1.2,3.78,3.78,0,0,1,1.27-.75,3.41,3.41,0,0,1,1.53-.2,3.75,3.75,0,0,0,.67,0A2.13,2.13,0,0,1,34.4,33.44ZM36.62.93A2.81,2.81,0,0,1,38,1.16,3.11,3.11,0,0,1,39.15,2a3.6,3.6,0,0,1,.67,1.25,3.09,3.09,0,0,1,.07,1.45c0,.54,0,1.09-.07,1.64s0,1.1-.07,1.64a3.18,3.18,0,0,1-.21,1.45,3.25,3.25,0,0,1-.81,1.15,3.76,3.76,0,0,1-1.23.72,3.2,3.2,0,0,1-1.48.14c-.21,0-.43,0-.65,0s-.44,0-.65,0a2.58,2.58,0,0,1-1.44-.19A3.11,3.11,0,0,1,31.5,9.12a2.85,2.85,0,0,1,0-1.45c0-.54.09-1.08.14-1.62s.08-1.08.1-1.62A3.59,3.59,0,0,1,32,3a3.55,3.55,0,0,1,.76-1.22A3.1,3.1,0,0,1,33.89,1,2.67,2.67,0,0,1,35.35.86,4.49,4.49,0,0,0,36,.9Q36.31.9,36.62.93Zm4.67,54a5.13,5.13,0,0,1,1.18.07,2.34,2.34,0,0,1,1.07.5A2.69,2.69,0,0,1,44.37,57a5.38,5.38,0,0,1,.05,1.44c-.07.54-.14,1.08-.23,1.61s-.14,1.06-.19,1.6a3.48,3.48,0,0,1-.33,1.49,4.27,4.27,0,0,1-.86,1.21,3.88,3.88,0,0,1-1.25.8,3.48,3.48,0,0,1-1.5.24l-.65.07a4.82,4.82,0,0,1-.65,0,6.45,6.45,0,0,1-1.17-.11,2.41,2.41,0,0,1-1.08-.49,2.61,2.61,0,0,1-.81-1.46,6.07,6.07,0,0,1,0-1.47c.07-.54.13-1.08.19-1.62S36,59.25,36,58.7a3.62,3.62,0,0,1,.32-1.48A3.91,3.91,0,0,1,37.2,56a4,4,0,0,1,1.25-.79A3.18,3.18,0,0,1,40,55a4.66,4.66,0,0,1,.65,0A3.89,3.89,0,0,0,41.29,55Zm1-10.76a2.66,2.66,0,0,1,1.43.12,3.21,3.21,0,0,1,1.16.78,3,3,0,0,1,.67,1.2,2.67,2.67,0,0,1,0,1.43c0,.54-.1,1.08-.16,1.6s-.11,1.07-.16,1.61a3.28,3.28,0,0,1-.33,1.48A4.48,4.48,0,0,1,44,53.61a3.73,3.73,0,0,1-1.27.77,3.78,3.78,0,0,1-1.49.23,3.52,3.52,0,0,0-.65,0,6.48,6.48,0,0,1-.65,0,5,5,0,0,1-1.21-.09,2.56,2.56,0,0,1-1.11-.51,2.7,2.7,0,0,1-.83-1.47,5.54,5.54,0,0,1-.05-1.46c.14-1.11.25-2.19.32-3.25a3.57,3.57,0,0,1,.31-1.48,3.8,3.8,0,0,1,.86-1.22,3.87,3.87,0,0,1,1.25-.78A3.44,3.44,0,0,1,41,44.2a4.9,4.9,0,0,0,.65,0Zm1.83-21.39a2.67,2.67,0,0,1,1.44.18,3.08,3.08,0,0,1,1.13.81A3.38,3.38,0,0,1,47.38,25a3,3,0,0,1,.07,1.43c-.05.54-.09,1.06-.13,1.57s-.07,1-.12,1.57a3.14,3.14,0,0,1-.28,1.48,3.51,3.51,0,0,1-.86,1.15,3.71,3.71,0,0,1-1.27.72,3.31,3.31,0,0,1-1.46.18c-.23,0-.45,0-.66,0H42a2.77,2.77,0,0,1-1.44-.16,2.88,2.88,0,0,1-1.13-.77,3.22,3.22,0,0,1-.67-1.22,2.74,2.74,0,0,1,0-1.45c0-.54.09-1.07.14-1.6s.09-1.07.14-1.61a3.3,3.3,0,0,1,.26-1.46,3.74,3.74,0,0,1,.83-1.2,3.1,3.1,0,0,1,1.23-.74,3.19,3.19,0,0,1,1.48-.13,3.59,3.59,0,0,0,.66,0A2.9,2.9,0,0,1,44.14,22.81Zm.63-10.62a3.19,3.19,0,0,1,1.41.25,3.12,3.12,0,0,1,1.14.81A3.47,3.47,0,0,1,48,14.47a2.76,2.76,0,0,1,.08,1.43c0,.54,0,1.07-.1,1.59s-.07,1-.07,1.58a3.1,3.1,0,0,1-1.09,2.54,3.38,3.38,0,0,1-1.23.69,3.06,3.06,0,0,1-1.44.13l-.67,0-.67,0a2.65,2.65,0,0,1-1.42-.18,3.07,3.07,0,0,1-1.16-.79,2.86,2.86,0,0,1-.67-1.22,2.81,2.81,0,0,1,0-1.44c0-.55.08-1.08.11-1.61s0-1.06.07-1.61A2.8,2.8,0,0,1,40,14.1a3.44,3.44,0,0,1,.82-1.17A3.21,3.21,0,0,1,42,12.21a2.94,2.94,0,0,1,1.45-.09h.43l.58.05A1.46,1.46,0,0,0,44.77,12.19Z" />
        <path
            d="M52.64,54.75a2.69,2.69,0,0,1,1.44.18,3.3,3.3,0,0,1,1.14.81A3,3,0,0,1,55.89,57a3.18,3.18,0,0,1,0,1.44c0,.54-.09,1.08-.12,1.61s-.07,1.06-.09,1.6a3.45,3.45,0,0,1-.25,1.47,3,3,0,0,1-.81,1.16,3.3,3.3,0,0,1-2.7.83c-.21,0-.44,0-.67,0a4.83,4.83,0,0,1-.67,0,2.78,2.78,0,0,1-1.4-.21A3.33,3.33,0,0,1,48.08,64a3.45,3.45,0,0,1-.7-1.2,2.57,2.57,0,0,1-.05-1.43c0-.54.06-1.07.1-1.59s.08-1,.11-1.59a3.07,3.07,0,0,1,.26-1.45,3.39,3.39,0,0,1,.83-1.14,3.63,3.63,0,0,1,1.21-.73,3.1,3.1,0,0,1,1.46-.14Zm1-10.73a2.54,2.54,0,0,1,1.42.13,2.82,2.82,0,0,1,1.15.79,3.36,3.36,0,0,1,.66,1.24,2.36,2.36,0,0,1,0,1.44c0,.54-.1,1.09-.15,1.63s-.11,1.08-.16,1.62a3.57,3.57,0,0,1-.3,1.46,3.48,3.48,0,0,1-.84,1.19,3.76,3.76,0,0,1-1.25.74,3.2,3.2,0,0,1-1.48.14,5.1,5.1,0,0,1-.67,0c-.21,0-.43,0-.66,0a2.68,2.68,0,0,1-1.41-.16,3,3,0,0,1-1.14-.79,3,3,0,0,1-.67-1.22,2.77,2.77,0,0,1,0-1.43c0-.54.09-1.07.14-1.59s.09-1.05.14-1.59a3.17,3.17,0,0,1,.28-1.46A3.63,3.63,0,0,1,49.52,45a3.8,3.8,0,0,1,1.27-.76,3.43,3.43,0,0,1,1.49-.2A3.74,3.74,0,0,1,53,44,2.5,2.5,0,0,0,53.62,44Zm1.16-10.76a2.59,2.59,0,0,1,1.41.12,3,3,0,0,1,1.12.78,2.79,2.79,0,0,1,.6,2.63c-.07.54-.14,1.09-.19,1.64s-.12,1.1-.16,1.64a3.42,3.42,0,0,1-.32,1.48,3.7,3.7,0,0,1-.86,1.17,3.87,3.87,0,0,1-1.27.76,3.41,3.41,0,0,1-1.49.19H52.28a2.87,2.87,0,0,1-1.4-.14,2.82,2.82,0,0,1-1.13-.74,2.9,2.9,0,0,1-.65-1.18,2.58,2.58,0,0,1,0-1.43q.1-.81.21-1.59T49.51,37a3.44,3.44,0,0,1,.33-1.48,3.81,3.81,0,0,1,.88-1.2A4.12,4.12,0,0,1,52,33.54a3.18,3.18,0,0,1,1.51-.21l.65-.07A3.53,3.53,0,0,1,54.78,33.26Zm5.94,32.4a2.88,2.88,0,0,1,1.44.21,3.08,3.08,0,0,1,1.13.81,3.14,3.14,0,0,1,.65,1.24,2.92,2.92,0,0,1,0,1.44c0,.54-.06,1.09-.11,1.64s-.07,1.1-.07,1.64a3.44,3.44,0,0,1-.25,1.45,3.33,3.33,0,0,1-2,2,2.85,2.85,0,0,1-1.46.16,1.92,1.92,0,0,0-.63,0h-.63a2.73,2.73,0,0,1-1.41-.23,3.1,3.1,0,0,1-1.12-.83,3.2,3.2,0,0,1-.67-1.23,3.08,3.08,0,0,1-.07-1.45c0-.54,0-1.09,0-1.64s0-1.1,0-1.64a3,3,0,0,1,.23-1.46,3.41,3.41,0,0,1,.83-1.17A3.45,3.45,0,0,1,58,65.8a3,3,0,0,1,1.46-.14,3.52,3.52,0,0,0,.65,0ZM62.55,44a2.77,2.77,0,0,1,1.44.16,2.86,2.86,0,0,1,1.14.79,3.15,3.15,0,0,1,.69,1.24,2.52,2.52,0,0,1,0,1.44c0,.54-.1,1.09-.16,1.63s-.11,1.08-.16,1.62a3.14,3.14,0,0,1-.28,1.5,3.42,3.42,0,0,1-.88,1.18,4,4,0,0,1-1.28.76,3,3,0,0,1-1.49.16c-.45,0-.88,0-1.31,0a2.75,2.75,0,0,1-1.42-.16,3,3,0,0,1-1.16-.79A3.2,3.2,0,0,1,57,52.28a2.39,2.39,0,0,1,0-1.45c0-.54.09-1.07.14-1.6s.09-1.07.14-1.61a3.62,3.62,0,0,1,1.17-2.68,4,4,0,0,1,1.27-.76A3.43,3.43,0,0,1,61.21,44a5.15,5.15,0,0,1,.67,0Zm2.14-21.81a5.76,5.76,0,0,1,1.18.12,2.59,2.59,0,0,1,1.07.51,3.26,3.26,0,0,1,.81,1.54,4.84,4.84,0,0,1,.07,1.46c0,.55-.1,1.09-.15,1.64s-.12,1.1-.16,1.65a3.28,3.28,0,0,1-.28,1.48,4.24,4.24,0,0,1-.85,1.22,3.41,3.41,0,0,1-1.25.77,3,3,0,0,1-1.49.16c-.21,0-.43,0-.65,0h-.65a4.55,4.55,0,0,1-1.21-.11A3.09,3.09,0,0,1,60,32.17a3,3,0,0,1-.79-1.5,6.12,6.12,0,0,1-.06-1.47c.1-.54.17-1.09.22-1.64s.1-1.1.17-1.64a3.58,3.58,0,0,1,.32-1.48,3.9,3.9,0,0,1,.84-1.22,3.73,3.73,0,0,1,1.21-.79,3.25,3.25,0,0,1,1.5-.22,2.68,2.68,0,0,1,.63-.05Zm4.86,43.58a2.79,2.79,0,0,1,1.44.16,2.68,2.68,0,0,1,1.1.8A3.15,3.15,0,0,1,72.73,68a2.65,2.65,0,0,1,0,1.45c0,.54-.09,1.09-.14,1.66s-.09,1.11-.14,1.66a3.65,3.65,0,0,1-.3,1.44,4,4,0,0,1-.79,1.22,3.28,3.28,0,0,1-1.2.78,3.32,3.32,0,0,1-1.47.19H67.4a2.78,2.78,0,0,1-1.4-.21,3,3,0,0,1-1.13-.81,3.27,3.27,0,0,1-.65-1.22,2.77,2.77,0,0,1,0-1.43c0-.54.06-1.09.11-1.66s.08-1.12.1-1.66a3.6,3.6,0,0,1,.3-1.46,3.74,3.74,0,0,1,.83-1.2,3.6,3.6,0,0,1,1.21-.78,3,3,0,0,1,1.5-.16Zm2-21.77a2.82,2.82,0,0,1,1.45.16,3,3,0,0,1,1.81,2,2.61,2.61,0,0,1,0,1.44c0,.54-.09,1.09-.14,1.63s-.1,1.08-.14,1.62a3.27,3.27,0,0,1-.28,1.5,3.71,3.71,0,0,1-2.15,2,3.22,3.22,0,0,1-1.51.16H69.19a2.9,2.9,0,0,1-1.44-.16,3.15,3.15,0,0,1-1.14-.8,3,3,0,0,1-.67-1.23,2.65,2.65,0,0,1,0-1.45c.05-.54.09-1.09.14-1.64s.09-1.1.14-1.64a3.68,3.68,0,0,1,1.18-2.68,3.64,3.64,0,0,1,1.26-.75,3.6,3.6,0,0,1,1.5-.17Zm1.73-21.85a2.51,2.51,0,0,1,1.42.2,3,3,0,0,1,1.09.83,3.27,3.27,0,0,1,.63,1.23,3.22,3.22,0,0,1,.06,1.45c0,.54-.1,1.09-.14,1.64s-.09,1.1-.11,1.64a3.53,3.53,0,0,1-.25,1.48,3.31,3.31,0,0,1-.79,1.2,3.36,3.36,0,0,1-1.21.76,3,3,0,0,1-1.48.16h-1.3a2.79,2.79,0,0,1-1.44-.16,2.76,2.76,0,0,1-1.11-.79A3.59,3.59,0,0,1,68,30.54a2.7,2.7,0,0,1,0-1.44c.07-.55.13-1.09.17-1.65l.15-1.64a3.39,3.39,0,0,1,.24-1.48,3.72,3.72,0,0,1,.79-1.22,3.63,3.63,0,0,1,1.2-.79A2.84,2.84,0,0,1,72,22.14Zm5.1,43.59a2.38,2.38,0,0,1,1.4.12,2.79,2.79,0,0,1,1.11.78,2.85,2.85,0,0,1,.61,1.2,2.68,2.68,0,0,1,0,1.43q-.08.81-.18,1.65c-.07.57-.13,1.12-.17,1.66A4.06,4.06,0,0,1,80.73,74a4.53,4.53,0,0,1-.85,1.22,3.66,3.66,0,0,1-1.23.81,3.09,3.09,0,0,1-1.48.21,2.22,2.22,0,0,0-.63,0,2.22,2.22,0,0,1-.63,0,2.51,2.51,0,0,1-1.39-.17,2.92,2.92,0,0,1-1.09-.8,2.85,2.85,0,0,1-.61-1.2,2.64,2.64,0,0,1,0-1.42c.05-.55.09-1.1.14-1.66s.09-1.12.14-1.66a3.73,3.73,0,0,1,.3-1.48,3.5,3.5,0,0,1,.84-1.22,3.87,3.87,0,0,1,1.25-.78A3.3,3.3,0,0,1,77,65.73ZM80.41,44a2.74,2.74,0,0,1,1.42.17A3.21,3.21,0,0,1,83,45a3,3,0,0,1,.69,1.22,2.52,2.52,0,0,1,0,1.44c-.05.54-.09,1.08-.14,1.61s-.1,1.06-.14,1.6a3.51,3.51,0,0,1-.32,1.5,3.82,3.82,0,0,1-.86,1.2,3.6,3.6,0,0,1-1.27.78,3.41,3.41,0,0,1-1.49.2,10,10,0,0,0-1.34,0,2.9,2.9,0,0,1-1.44-.16,3.15,3.15,0,0,1-1.14-.8,3,3,0,0,1-.67-1.23,2.65,2.65,0,0,1,0-1.45c0-.54.1-1.08.16-1.62s.11-1.09.16-1.63a3.94,3.94,0,0,1,.29-1.48,3.32,3.32,0,0,1,.85-1.2,3.88,3.88,0,0,1,1.25-.76A3.44,3.44,0,0,1,79.11,44a4.85,4.85,0,0,0,.65,0C80,44,80.17,44,80.41,44Zm1.34-21.67a2.72,2.72,0,0,1,1.42.23,3.37,3.37,0,0,1,1.11.83,3.32,3.32,0,0,1,.66,1.23,3.23,3.23,0,0,1,.11,1.45q0,.81-.09,1.62c0,.55,0,1.09,0,1.63a3.09,3.09,0,0,1-1,2.61,3.35,3.35,0,0,1-1.21.74,3.1,3.1,0,0,1-1.46.14,3.53,3.53,0,0,1-.65,0,3.53,3.53,0,0,0-.65,0,2.69,2.69,0,0,1-1.44-.18,2.84,2.84,0,0,1-1.12-.81,3.2,3.2,0,0,1-.67-1.23,3,3,0,0,1-.07-1.45c0-.54.08-1.09.1-1.64s.06-1.1.11-1.64a3,3,0,0,1,.21-1.45,3.84,3.84,0,0,1,.77-1.22,3.12,3.12,0,0,1,2.64-.9h.63C81.32,22.28,81.53,22.3,81.75,22.32ZM89.34,44a2.65,2.65,0,0,1,1.42.18,3.29,3.29,0,0,1,1.16.78,2.87,2.87,0,0,1,.69,1.2,2.52,2.52,0,0,1,0,1.44c0,.54-.1,1.07-.14,1.59s-.1,1-.14,1.59A3.57,3.57,0,0,1,92,52.3a3.63,3.63,0,0,1-.86,1.18,3.87,3.87,0,0,1-1.27.76,3.29,3.29,0,0,1-1.49.19,3.78,3.78,0,0,0-.67,0h-.67a6.28,6.28,0,0,1-1.21-.12,2.56,2.56,0,0,1-1.11-.51,3.26,3.26,0,0,1-.82-1.5,4.61,4.61,0,0,1-.09-1.47c.05-.54.1-1.07.16-1.6s.11-1.07.16-1.61a3.15,3.15,0,0,1,.28-1.48,3.6,3.6,0,0,1,2.07-2A3.17,3.17,0,0,1,88,44a3.83,3.83,0,0,0,.67,0ZM90,33.4a2.83,2.83,0,0,1,1.41.21,3.41,3.41,0,0,1,1.14.8,3.11,3.11,0,0,1,.7,1.21,2.75,2.75,0,0,1,.09,1.45q-.07.81-.12,1.59t-.09,1.59a3,3,0,0,1-.28,1.44A3.51,3.51,0,0,1,92,42.84a3.69,3.69,0,0,1-1.25.71,3.19,3.19,0,0,1-1.44.12,5.35,5.35,0,0,1-.69,0l-.65,0a2.75,2.75,0,0,1-1.42-.16,3,3,0,0,1-1.16-.77,2.92,2.92,0,0,1-.67-1.22,3,3,0,0,1,0-1.45c0-.54.09-1.08.13-1.6s.06-1.07.08-1.61a3,3,0,0,1,.23-1.46A3.59,3.59,0,0,1,86,34.21a3.49,3.49,0,0,1,1.23-.74,2.84,2.84,0,0,1,1.48-.1,3.61,3.61,0,0,0,.66,0A4.85,4.85,0,0,1,90,33.4Z" />
        <path
            d="M99,65.48a2.91,2.91,0,0,1,1.44.21,3.31,3.31,0,0,1,1.14.8,3,3,0,0,1,.69,1.21,3.38,3.38,0,0,1,.1,1.45c0,.54-.08,1.09-.1,1.64s0,1.1-.07,1.64a3.44,3.44,0,0,1-.18,1.43,3,3,0,0,1-.74,1.17,3.34,3.34,0,0,1-1.17.72,2.48,2.48,0,0,1-1.43.07,2.22,2.22,0,0,1-.63,0,4.46,4.46,0,0,0-.63,0A3.06,3.06,0,0,1,96,75.49a3.25,3.25,0,0,1-1.13-.83,3.88,3.88,0,0,1-.7-1.22A3,3,0,0,1,94,72a12.43,12.43,0,0,0,0-1.61c0-.53,0-1.06,0-1.6a2.68,2.68,0,0,1,.16-1.41A3,3,0,0,1,95,66.24a3.51,3.51,0,0,1,1.21-.71,2.87,2.87,0,0,1,1.43-.09,3.53,3.53,0,0,1,.65,0A4.82,4.82,0,0,0,99,65.48Zm2.85-32.22a2.59,2.59,0,0,1,1.42.12,3.11,3.11,0,0,1,1.11.78,2.9,2.9,0,0,1,.63,1.22,2.72,2.72,0,0,1,0,1.44c0,.55-.1,1.09-.15,1.63s-.12,1.08-.16,1.62a3.57,3.57,0,0,1-.32,1.5,3.63,3.63,0,0,1-.86,1.18,3.51,3.51,0,0,1-1.27.74,3.41,3.41,0,0,1-1.49.18h-1.3A2.92,2.92,0,0,1,98,43.53a3,3,0,0,1-1.14-.74,2.72,2.72,0,0,1-.67-1.18,2.77,2.77,0,0,1,0-1.43l.21-1.61c.07-.53.12-1.06.17-1.6a3.24,3.24,0,0,1,.34-1.47,4,4,0,0,1,.87-1.2A3.85,3.85,0,0,1,99,33.52a3.78,3.78,0,0,1,1.49-.22,3.53,3.53,0,0,1,.65,0A4.8,4.8,0,0,0,101.81,33.26Zm5.94,32.43a3.87,3.87,0,0,1,1.21.13,2.87,2.87,0,0,1,1.11.54,3.39,3.39,0,0,1,.86,1.54,6.13,6.13,0,0,1,.12,1.46c0,.54-.09,1.1-.14,1.66s-.08,1.12-.1,1.66a3.47,3.47,0,0,1-.25,1.45,3.69,3.69,0,0,1-.77,1.2,3.2,3.2,0,0,1-1.18.74,3.11,3.11,0,0,1-1.46.14,2.22,2.22,0,0,1-.63,0,2.74,2.74,0,0,0-.64,0,2.68,2.68,0,0,1-1.4-.23,3.13,3.13,0,0,1-1.13-.83,3.34,3.34,0,0,1-.67-1.21,3,3,0,0,1-.07-1.43c0-.54.07-1.09.07-1.64s0-1.1.07-1.64a3.16,3.16,0,0,1,.22-1.47,3.07,3.07,0,0,1,.79-1.16,3.44,3.44,0,0,1,1.21-.73,3.2,3.2,0,0,1,1.48-.14c.21,0,.42,0,.65,0A4.66,4.66,0,0,1,107.75,65.69ZM109.57,44a2.82,2.82,0,0,1,1.45.16,3,3,0,0,1,1.14.79,3.13,3.13,0,0,1,.68,1.24,2.52,2.52,0,0,1,0,1.44c0,.54-.09,1.09-.14,1.63s-.09,1.08-.14,1.62a3.62,3.62,0,0,1-1.17,2.68,4,4,0,0,1-1.27.76,3,3,0,0,1-1.49.16l-.67,0-.67,0a2.65,2.65,0,0,1-1.42-.18,3.09,3.09,0,0,1-1.16-.8,3,3,0,0,1-.69-1.21,2.56,2.56,0,0,1,0-1.45c0-.54.1-1.09.16-1.64s.11-1.1.16-1.64a3.49,3.49,0,0,1,.31-1.47,3.75,3.75,0,0,1,.85-1.18,3.64,3.64,0,0,1,1.24-.76,3.45,3.45,0,0,1,1.5-.19Zm2.15-21.81a9.27,9.27,0,0,1,1.18.14,2.54,2.54,0,0,1,1.07.49,3.2,3.2,0,0,1,.79,1.54,7.34,7.34,0,0,1,.09,1.46c0,.55-.1,1.09-.14,1.64s-.1,1.1-.14,1.65a3.62,3.62,0,0,1-.32,1.48,4,4,0,0,1-.84,1.22,3.41,3.41,0,0,1-1.25.77,3,3,0,0,1-1.5.16,4.93,4.93,0,0,0-.65,0,3.53,3.53,0,0,1-.65,0,2.46,2.46,0,0,1-1.4-.13,2.83,2.83,0,0,1-1.13-.79,2.76,2.76,0,0,1-.61-1.22,2.79,2.79,0,0,1,0-1.43q.08-.81.18-1.62c.07-.54.12-1.08.17-1.63a3.62,3.62,0,0,1,.32-1.48,4.2,4.2,0,0,1,.82-1.23,3.27,3.27,0,0,1,1.2-.81,3.49,3.49,0,0,1,1.49-.25Zm4.85,43.58a5.46,5.46,0,0,1,1.2.14,2.91,2.91,0,0,1,1.09.53A3.28,3.28,0,0,1,119.7,68a6.54,6.54,0,0,1,.11,1.45c-.08.54-.14,1.09-.2,1.66s-.11,1.11-.16,1.66a3.79,3.79,0,0,1-.28,1.46,3.4,3.4,0,0,1-.81,1.2,3.6,3.6,0,0,1-1.21.78,3.24,3.24,0,0,1-1.46.19h-1.26a2.8,2.8,0,0,1-1.41-.21,3,3,0,0,1-1.12-.81,3.15,3.15,0,0,1-.66-1.22,2.88,2.88,0,0,1,0-1.43c0-.54.09-1.09.12-1.66s.08-1.12.12-1.66a3.1,3.1,0,0,1,.23-1.48,3.53,3.53,0,0,1,.83-1.2,3.35,3.35,0,0,1,1.25-.74,3.56,3.56,0,0,1,1.49-.18Zm2-21.77a2.78,2.78,0,0,1,1.44.16,2.86,2.86,0,0,1,1.14.79,3.15,3.15,0,0,1,.69,1.24,2.52,2.52,0,0,1,0,1.44c0,.54-.1,1.09-.16,1.63s-.11,1.08-.16,1.62a3.72,3.72,0,0,1-.3,1.5,3.62,3.62,0,0,1-.84,1.2,3.76,3.76,0,0,1-1.27.78,3.13,3.13,0,0,1-1.49.16h-1.34a2.9,2.9,0,0,1-1.44-.16,3.15,3.15,0,0,1-1.14-.8,3.24,3.24,0,0,1-.69-1.23,2.56,2.56,0,0,1,0-1.45c0-.54.1-1.09.16-1.64s.11-1.1.16-1.64a3.58,3.58,0,0,1,.32-1.48,3.7,3.7,0,0,1,.84-1.2,3.51,3.51,0,0,1,1.25-.75A3.58,3.58,0,0,1,117.2,44Zm1.72-21.85a2.55,2.55,0,0,1,1.43.2,3.11,3.11,0,0,1,1.1.83,2.92,2.92,0,0,1,.65,1.23,3.22,3.22,0,0,1,.06,1.45c-.12,1.11-.19,2.2-.21,3.28a3.39,3.39,0,0,1-.27,1.48,3.51,3.51,0,0,1-.82,1.2,3.73,3.73,0,0,1-1.23.76,3,3,0,0,1-1.48.16h-1.3a2.77,2.77,0,0,1-1.44-.16,2.83,2.83,0,0,1-1.13-.79,3.28,3.28,0,0,1-.65-1.24,2.61,2.61,0,0,1,0-1.44c.05-.55.1-1.09.16-1.65s.11-1.09.16-1.64a3.27,3.27,0,0,1,.24-1.44,4.12,4.12,0,0,1,.77-1.24,3.45,3.45,0,0,1,1.18-.81,2.89,2.89,0,0,1,1.5-.18Zm5.1,43.59a4.06,4.06,0,0,1,1.2.1,3.18,3.18,0,0,1,1.09.5,3.47,3.47,0,0,1,.77,1.5,4.93,4.93,0,0,1,.07,1.43c-.09.54-.17,1.09-.23,1.65s-.11,1.12-.16,1.66a3.87,3.87,0,0,1-.35,1.47,4.28,4.28,0,0,1-.84,1.22,3.66,3.66,0,0,1-1.23.81,3.11,3.11,0,0,1-1.48.21,2.22,2.22,0,0,0-.63,0,2.28,2.28,0,0,1-.64,0,2.57,2.57,0,0,1-2.46-1,3.07,3.07,0,0,1-.56-2.64c0-.55.1-1.1.16-1.66s.11-1.12.16-1.66a3.13,3.13,0,0,1,.28-1.48,3.79,3.79,0,0,1,.84-1.22,3.58,3.58,0,0,1,1.23-.78,3.21,3.21,0,0,1,1.48-.19ZM127.47,44a2.78,2.78,0,0,1,1.44.16,2.86,2.86,0,0,1,1.14.79,3.15,3.15,0,0,1,.69,1.24,2.52,2.52,0,0,1,0,1.44c-.05.54-.1,1.09-.16,1.63s-.11,1.08-.16,1.62a3.72,3.72,0,0,1-.3,1.5,3.44,3.44,0,0,1-.84,1.18,3.87,3.87,0,0,1-1.27.76,3,3,0,0,1-1.49.16l-.67,0-.67,0a2.9,2.9,0,0,1-1.44-.16,3.15,3.15,0,0,1-1.14-.8,3,3,0,0,1-.67-1.23,2.65,2.65,0,0,1,0-1.45c0-.54.09-1.08.14-1.62s.09-1.09.14-1.63a3.28,3.28,0,0,1,.28-1.48,3.61,3.61,0,0,1,.86-1.2,4,4,0,0,1,1.25-.76,3.44,3.44,0,0,1,1.51-.19Zm1.3-21.71a2.89,2.89,0,0,1,1.44.23,3.18,3.18,0,0,1,1.13.85,3.57,3.57,0,0,1,.66,1.25,3.23,3.23,0,0,1,.11,1.45c-.05.54-.07,1.08-.07,1.61s0,1.06,0,1.6a3.19,3.19,0,0,1-.24,1.45,3.38,3.38,0,0,1-.81,1.16,3.64,3.64,0,0,1-1.21.76,2.88,2.88,0,0,1-1.46.16,4.66,4.66,0,0,0-.65,0c-.23,0-.44,0-.65,0a2.67,2.67,0,0,1-1.44-.18,3,3,0,0,1-1.15-.81,2.94,2.94,0,0,1-.66-1.23,2.85,2.85,0,0,1,0-1.45c0-.54.06-1.09.1-1.64s.09-1.1.11-1.64a3.25,3.25,0,0,1,.19-1.45,3.65,3.65,0,0,1,.76-1.22,3.14,3.14,0,0,1,1.18-.77,2.83,2.83,0,0,1,1.45-.16,2.34,2.34,0,0,0,.64.05Zm6.64,32.51a2.4,2.4,0,0,1,1.41.12,3.13,3.13,0,0,1,1.14.76,2.72,2.72,0,0,1,.67,1.18,2.58,2.58,0,0,1,0,1.43l-.21,1.61-.21,1.6a3.43,3.43,0,0,1-.33,1.5,3.88,3.88,0,0,1-.88,1.18,4.1,4.1,0,0,1-1.27.78,3.17,3.17,0,0,1-1.49.21,3.51,3.51,0,0,1-.65,0,3.51,3.51,0,0,0-.65,0,4.86,4.86,0,0,1-1.2-.09,2.09,2.09,0,0,1-1.88-2,5.45,5.45,0,0,1-.05-1.45c.09-.54.16-1.08.21-1.64s.09-1.1.14-1.64a3.68,3.68,0,0,1,1.18-2.68,3.83,3.83,0,0,1,1.26-.76,3.41,3.41,0,0,1,1.53-.19Zm1.87-32.12a3.19,3.19,0,0,1,1.44.27,3.26,3.26,0,0,1,1.14.83,3.44,3.44,0,0,1,.72,1.23,3.25,3.25,0,0,1,.18,1.45,12.18,12.18,0,0,0,0,1.59c0,.51,0,1,0,1.59a2.9,2.9,0,0,1-.21,1.44,3.33,3.33,0,0,1-.79,1.15,3,3,0,0,1-1.21.69,3.33,3.33,0,0,1-1.44.1,3.52,3.52,0,0,0-.65,0,4.61,4.61,0,0,1-.65,0,3,3,0,0,1-1.43-.21,3.39,3.39,0,0,1-1.16-.8,3.2,3.2,0,0,1-.7-1.22,2.61,2.61,0,0,1,0-1.44c0-.54,0-1.08.08-1.63s.06-1.08.06-1.62a2.89,2.89,0,0,1,.14-1.43,3.16,3.16,0,0,1,.72-1.18,2.93,2.93,0,0,1,1.14-.74A2.68,2.68,0,0,1,136,22.6a4.49,4.49,0,0,0,.64,0Q137,22.64,137.28,22.67Z" />
        <path
            d="M150.42,22.09a4.76,4.76,0,0,1,1.19.07,2.39,2.39,0,0,1,1.09.49,3.09,3.09,0,0,1,.86,1.48,4.49,4.49,0,0,1,.09,1.45c0,.54-.1,1.08-.16,1.62s-.11,1.08-.15,1.63a3.57,3.57,0,0,1-.32,1.5,4.07,4.07,0,0,1-.86,1.2,3.48,3.48,0,0,1-1.27.75,3.42,3.42,0,0,1-1.49.18l-.67,0-.67,0a2.84,2.84,0,0,1-2.53-.9,3.07,3.07,0,0,1-.65-1.19,2.8,2.8,0,0,1,0-1.41c0-.54.11-1.06.2-1.57a13.06,13.06,0,0,0,.15-1.57,3.71,3.71,0,0,1,2.36-3.49,3.61,3.61,0,0,1,1.51-.25l.67,0Zm6,32.43a2.78,2.78,0,0,1,1.43.17,3.12,3.12,0,0,1,1.83,2.05,2.85,2.85,0,0,1,0,1.45c-.07.54-.12,1.09-.15,1.64s-.09,1.1-.16,1.64a3.25,3.25,0,0,1-.27,1.46,3.71,3.71,0,0,1-.82,1.2,3.3,3.3,0,0,1-2.74.9l-.67-.07a3.75,3.75,0,0,0-.67,0,2.6,2.6,0,0,1-1.42-.24,3.49,3.49,0,0,1-1.11-.85,3.17,3.17,0,0,1-.67-1.24,2.7,2.7,0,0,1,0-1.44l.12-1.61c0-.53.07-1.06.12-1.6a3.31,3.31,0,0,1,1.11-2.65,3.44,3.44,0,0,1,2.76-.85,3.81,3.81,0,0,0,.67,0A3.7,3.7,0,0,1,156.46,54.52Zm.92-10.84a2.86,2.86,0,0,1,2.58,1,3.11,3.11,0,0,1,.69,1.23,2.55,2.55,0,0,1,0,1.45c-.07.54-.13,1.09-.16,1.64l-.12,1.64a3.14,3.14,0,0,1-.28,1.48A3.71,3.71,0,0,1,158,54a3.49,3.49,0,0,1-1.48.17,5,5,0,0,0-.67,0,5.15,5.15,0,0,1-.67,0,2.69,2.69,0,0,1-1.44-.18,3.3,3.3,0,0,1-1.14-.81,3.26,3.26,0,0,1-.7-1.23,2.65,2.65,0,0,1-.06-1.45c.07-.54.13-1.08.16-1.61s.08-1.06.13-1.6a3.62,3.62,0,0,1,1.17-2.68,3.8,3.8,0,0,1,1.27-.76,3,3,0,0,1,1.49-.16,5.15,5.15,0,0,0,.67,0A3.79,3.79,0,0,1,157.38,43.68Zm1-10.9a2.79,2.79,0,0,1,1.44.16,2.93,2.93,0,0,1,1.14.79A3.15,3.15,0,0,1,161.6,35a2.52,2.52,0,0,1,0,1.44c0,.54-.09,1.09-.13,1.64s-.07,1.1-.12,1.65a3.27,3.27,0,0,1-.28,1.5,4.07,4.07,0,0,1-.86,1.2,3.54,3.54,0,0,1-1.28.77,3.15,3.15,0,0,1-1.52.16,3.64,3.64,0,0,0-.66,0,2.53,2.53,0,0,1-.67,0,3,3,0,0,1-1.46-.16,3,3,0,0,1-1.16-.78,3,3,0,0,1-.69-1.22,2.66,2.66,0,0,1,0-1.48c0-.54.1-1.08.14-1.62s.1-1.09.14-1.63a3.15,3.15,0,0,1,.29-1.5,3.52,3.52,0,0,1,.87-1.18A4.18,4.18,0,0,1,155.5,33a3.43,3.43,0,0,1,1.49-.19,5.15,5.15,0,0,0,.67,0C157.87,32.78,158.09,32.78,158.33,32.78Zm1-10.87a2.77,2.77,0,0,1,1.44.16,2.83,2.83,0,0,1,1.13.79,3.47,3.47,0,0,1,.67,1.24,2.7,2.7,0,0,1,0,1.44c-.05.55-.09,1.09-.14,1.63s-.09,1.08-.14,1.62a3.27,3.27,0,0,1-.28,1.5,3.82,3.82,0,0,1-.86,1.2,3.75,3.75,0,0,1-1.29.78,3.22,3.22,0,0,1-1.51.16h-.67a3.66,3.66,0,0,1-.66,0,2.87,2.87,0,0,1-1.44-.16,3.17,3.17,0,0,1-1.15-.78,3.11,3.11,0,0,1-.68-1.22,2.52,2.52,0,0,1,0-1.44c0-.55.1-1.08.17-1.61s.12-1.06.14-1.61a3.62,3.62,0,0,1,.32-1.48,3.91,3.91,0,0,1,.86-1.22,3.74,3.74,0,0,1,1.25-.77,3.44,3.44,0,0,1,1.51-.2l.65,0Zm1-10.91a2.67,2.67,0,0,1,1.44.18,3.16,3.16,0,0,1,1.13.79,3.12,3.12,0,0,1,.65,1.22,2.65,2.65,0,0,1,0,1.45c-.05.54-.1,1.09-.16,1.64s-.1,1.1-.12,1.64a3.58,3.58,0,0,1-.32,1.48,3.7,3.7,0,0,1-.84,1.2,3.53,3.53,0,0,1-1.25.76,3.43,3.43,0,0,1-1.49.2l-.65,0a3.48,3.48,0,0,0-.65,0,3,3,0,0,1-1.43-.14,3.14,3.14,0,0,1-1.16-.75,2.83,2.83,0,0,1-.67-1.2,2.71,2.71,0,0,1,0-1.44c.05-.54.11-1.09.18-1.64s.12-1.1.14-1.64a3.62,3.62,0,0,1,.31-1.49,4.06,4.06,0,0,1,.85-1.21,3.63,3.63,0,0,1,1.23-.8A3.18,3.18,0,0,1,159,11h.65A4.63,4.63,0,0,0,160.33,11Zm.95-11a2.58,2.58,0,0,1,1.42.18,2.67,2.67,0,0,1,1.09.81,3,3,0,0,1,.62,1.23,3,3,0,0,1,0,1.45c0,.54-.1,1.09-.16,1.66s-.1,1.12-.12,1.66a3.42,3.42,0,0,1-.27,1.48A3.37,3.37,0,0,1,163,9.7a3.69,3.69,0,0,1-1.23.76,3.35,3.35,0,0,1-1.48.19c-.21,0-.43,0-.65,0H159a2.5,2.5,0,0,1-1.41-.13,2.71,2.71,0,0,1-1.1-.77,3,3,0,0,1-.64-1.22,2.75,2.75,0,0,1,0-1.45c.07-.54.13-1.09.18-1.66s.09-1.11.14-1.66a3.77,3.77,0,0,1,.3-1.48,4,4,0,0,1,.81-1.23,3.23,3.23,0,0,1,1.19-.81A3.54,3.54,0,0,1,160,0Zm3.06,65.46a2.75,2.75,0,0,1,2.51.94,3,3,0,0,1,.64,1.2,2.88,2.88,0,0,1,0,1.43c-.07.54-.13,1.09-.19,1.64s-.11,1.1-.16,1.64a3.24,3.24,0,0,1-.26,1.48,4.16,4.16,0,0,1-.81,1.24,3.48,3.48,0,0,1-1.21.81,3.09,3.09,0,0,1-1.48.21h-1.27a2.51,2.51,0,0,1-1.42-.19,3.1,3.1,0,0,1-1.09-.83,3.39,3.39,0,0,1-.63-1.24,2.85,2.85,0,0,1,0-1.45c0-.54.09-1.08.14-1.64s.09-1.1.14-1.64a3.3,3.3,0,0,1,.27-1.46,3.56,3.56,0,0,1,.82-1.2,3.26,3.26,0,0,1,1.23-.76,3.66,3.66,0,0,1,1.48-.18Zm3.87-43.58a2.91,2.91,0,0,1,1.44.21,3.38,3.38,0,0,1,1.14.79,2.92,2.92,0,0,1,.67,1.22,3.09,3.09,0,0,1,0,1.45c0,.54-.09,1.08-.14,1.62s-.09,1.08-.14,1.63a3.57,3.57,0,0,1-.32,1.5,3.84,3.84,0,0,1-.84,1.18,3.49,3.49,0,0,1-1.25.74,3.75,3.75,0,0,1-1.49.18H166a2.9,2.9,0,0,1-1.44-.16,3.06,3.06,0,0,1-1.81-2,2.65,2.65,0,0,1,0-1.45c0-.54.09-1.08.14-1.62s.09-1.08.14-1.63a3.41,3.41,0,0,1,.26-1.48,3.83,3.83,0,0,1,.83-1.22,3.42,3.42,0,0,1,1.23-.77,3,3,0,0,1,1.51-.16,5.15,5.15,0,0,0,.67,0Zm4.88,43.34a3.74,3.74,0,0,1,1.16,0,2.7,2.7,0,0,1,1.06.46,3,3,0,0,1,.81,1.43,5.07,5.07,0,0,1,.07,1.39c-.1.54-.17,1.09-.23,1.64s-.12,1.1-.19,1.65a3.62,3.62,0,0,1-.32,1.48,4.88,4.88,0,0,1-.83,1.27,3.66,3.66,0,0,1-1.21.88,3.21,3.21,0,0,1-1.51.28l-1.27.11a2.2,2.2,0,0,1-1.4-.09,2.83,2.83,0,0,1-1.08-.79,2.91,2.91,0,0,1-.59-1.24,3.05,3.05,0,0,1,0-1.41c.07-.54.14-1.09.2-1.64s.11-1.1.16-1.64a3.2,3.2,0,0,1,.28-1.49,4.07,4.07,0,0,1,.84-1.23,3.66,3.66,0,0,1,1.23-.81,3.61,3.61,0,0,1,1.51-.25,4.66,4.66,0,0,1,.65,0A3.5,3.5,0,0,0,173.09,65.25Zm4-43.09a2.88,2.88,0,0,1,1.44.21,3.14,3.14,0,0,1,1.83,2,3.09,3.09,0,0,1,.07,1.45c-.07.54-.12,1.07-.16,1.57s-.07,1-.12,1.57a3.38,3.38,0,0,1-.32,1.45,3.5,3.5,0,0,1-2.07,1.87,3.2,3.2,0,0,1-1.48.14c-.23,0-.45,0-.67,0a5,5,0,0,0-.66,0,2.67,2.67,0,0,1-1.44-.18,3.2,3.2,0,0,1-1.15-.79,3.11,3.11,0,0,1-.68-1.22,2.52,2.52,0,0,1,0-1.44c0-.55.09-1.08.14-1.61s.09-1.06.14-1.61a3.16,3.16,0,0,1,.26-1.46,3.55,3.55,0,0,1,.83-1.18,3.35,3.35,0,0,1,1.23-.74,3,3,0,0,1,1.48-.14l.68,0A4.63,4.63,0,0,1,177.1,22.16Z" />
    </g>
    <g id="be-group">
        <path
            d="M185.24,65a3.2,3.2,0,0,1,1.45.26,3.49,3.49,0,0,1,1.14.83,3.34,3.34,0,0,1,.68,1.24,3,3,0,0,1,.07,1.45l-.12,1.6c0,.53-.05,1.07-.05,1.61a3.17,3.17,0,0,1-.2,1.43,3.07,3.07,0,0,1-.77,1.16,3.3,3.3,0,0,1-1.18.71,2.59,2.59,0,0,1-1.44,0l-1.26-.11a3.26,3.26,0,0,1-1.41-.31,3.36,3.36,0,0,1-1.13-.87,3.49,3.49,0,0,1-.66-1.25,3,3,0,0,1-.07-1.45c0-.54,0-1.06,0-1.57s0-1,0-1.57a2.83,2.83,0,0,1,.21-1.41,3.24,3.24,0,0,1,.77-1.13,2.93,2.93,0,0,1,1.18-.67,2.84,2.84,0,0,1,1.42-.07l.65,0ZM186,54.31a2.88,2.88,0,0,1,1.44.21,3.08,3.08,0,0,1,1.13.81,3.16,3.16,0,0,1,.65,1.23,3.09,3.09,0,0,1,.05,1.45c-.12,1.11-.19,2.19-.21,3.25a3.14,3.14,0,0,1-.26,1.44,3.43,3.43,0,0,1-.83,1.15,3.51,3.51,0,0,1-1.21.71,3,3,0,0,1-1.46.09h-.65a3.5,3.5,0,0,1-.65-.07,3.11,3.11,0,0,1-1.41-.27,3.49,3.49,0,0,1-1.14-.83,3.11,3.11,0,0,1-.69-1.23,2.74,2.74,0,0,1,0-1.45c0-.54.08-1.06.1-1.57s.06-1,.11-1.57a2.63,2.63,0,0,1,.19-1.45,3.3,3.3,0,0,1,2.08-1.85,3,3,0,0,1,1.46-.09,5,5,0,0,0,.66,0A3.81,3.81,0,0,1,186,54.31Zm.81-10.73a2.77,2.77,0,0,1,1.44.17,3,3,0,0,1,1.14.82A3,3,0,0,1,190,45.8a2.85,2.85,0,0,1,0,1.45c-.05.54-.09,1.08-.14,1.62s-.09,1.08-.14,1.62a3.44,3.44,0,0,1-.26,1.49,3.31,3.31,0,0,1-.85,1.14,3.45,3.45,0,0,1-1.25.71A3.3,3.3,0,0,1,186,54a2.48,2.48,0,0,1-.67,0,2.12,2.12,0,0,0-.67,0,3,3,0,0,1-1.41-.21,3.41,3.41,0,0,1-1.14-.8,3.1,3.1,0,0,1-.68-1.2,2.66,2.66,0,0,1,0-1.43c0-.54.09-1.07.12-1.6s.08-1.07.13-1.61a3,3,0,0,1,.28-1.46,3.49,3.49,0,0,1,.86-1.17,3.62,3.62,0,0,1,1.27-.72,3.12,3.12,0,0,1,1.49-.14l.39,0Zm1-10.77a2.78,2.78,0,0,1,1.41.16,3.05,3.05,0,0,1,1.14.78A2.86,2.86,0,0,1,191,35a2.61,2.61,0,0,1,0,1.44c0,.54-.09,1.09-.14,1.63s-.09,1.08-.14,1.62a3.12,3.12,0,0,1-.26,1.46,3.62,3.62,0,0,1-.84,1.2,3.37,3.37,0,0,1-1.27.76,3,3,0,0,1-1.49.14,3.66,3.66,0,0,1-.65,0l-.66,0a2.63,2.63,0,0,1-1.45-.17,3.29,3.29,0,0,1-1.16-.78,2.87,2.87,0,0,1-.69-1.2,2.74,2.74,0,0,1,0-1.45c0-.54.09-1.07.15-1.6s.11-1.07.16-1.61a3.68,3.68,0,0,1,1.18-2.68,3.47,3.47,0,0,1,1.26-.74,3.31,3.31,0,0,1,1.5-.14c.23,0,.46,0,.67,0Zm1-10.76a2.71,2.71,0,0,1,1.45.12,3,3,0,0,1,1.12.78,2.92,2.92,0,0,1,.65,1.2,2.77,2.77,0,0,1,0,1.43q-.08.81-.18,1.62c-.07.54-.11,1.08-.14,1.63a3.72,3.72,0,0,1-.3,1.5,3.83,3.83,0,0,1-.84,1.2,3.63,3.63,0,0,1-2.76.93,5.1,5.1,0,0,0-.67,0c-.21,0-.43,0-.67,0a3,3,0,0,1-1.42-.14,2.89,2.89,0,0,1-1.83-2,2.58,2.58,0,0,1,0-1.43q.07-.81.18-1.59c.07-.51.12-1,.17-1.58a3.63,3.63,0,0,1,.32-1.49,3.86,3.86,0,0,1,.84-1.21,3.58,3.58,0,0,1,1.25-.78,3.78,3.78,0,0,1,1.49-.23,4.9,4.9,0,0,0,.65,0ZM190,11.25a2.5,2.5,0,0,1,1.39.11,2.79,2.79,0,0,1,1.71,3.39c-.05.54-.11,1.08-.18,1.64s-.11,1.1-.14,1.64a3.32,3.32,0,0,1-.33,1.46,4.17,4.17,0,0,1-.86,1.2,3.58,3.58,0,0,1-1.25.78,3.45,3.45,0,0,1-1.5.19,3.7,3.7,0,0,1-.66,0,3.43,3.43,0,0,0-.64,0,2.55,2.55,0,0,1-1.4-.11,2.85,2.85,0,0,1-1.14-.74,2.72,2.72,0,0,1-.67-1.18,2.42,2.42,0,0,1,.05-1.43c0-.54.11-1.08.19-1.61s.15-1.06.2-1.6a3.57,3.57,0,0,1,.31-1.48,3.88,3.88,0,0,1,.86-1.24,3.58,3.58,0,0,1,1.25-.79,3.63,3.63,0,0,1,1.51-.23,4.73,4.73,0,0,1,.65,0Zm1.24-11a2.35,2.35,0,0,1,1.4.12,2.69,2.69,0,0,1,1.06.79,3.17,3.17,0,0,1,.59,1.24,2.6,2.6,0,0,1,0,1.41l-.21,1.64c-.07.55-.13,1.1-.18,1.64a3.73,3.73,0,0,1-.3,1.48,3.5,3.5,0,0,1-.84,1.22,4.18,4.18,0,0,1-1.27.81,3,3,0,0,1-1.49.23l-.63,0-.64,0a4.17,4.17,0,0,1-1.17-.08,3.09,3.09,0,0,1-1.08-.48,2.54,2.54,0,0,1-.79-1.45,6.31,6.31,0,0,1,0-1.44c.09-.55.17-1.09.24-1.63l.21-1.62a4.55,4.55,0,0,1,.34-1.5,3.82,3.82,0,0,1,.82-1.25A4,4,0,0,1,188.5.63,3.08,3.08,0,0,1,190,.35l.63,0ZM194,65.35a3,3,0,0,1,1.44.21,3.15,3.15,0,0,1,1.15.82,2.94,2.94,0,0,1,.66,1.23,3.22,3.22,0,0,1,.06,1.45c-.05.54-.09,1.09-.13,1.64s-.06,1.1-.08,1.64a3.41,3.41,0,0,1-.25,1.46A3.63,3.63,0,0,1,196,75a3.19,3.19,0,0,1-1.21.76,2.84,2.84,0,0,1-1.48.11,2.22,2.22,0,0,1-.63,0,2.74,2.74,0,0,0-.64,0,2.61,2.61,0,0,1-1.42-.24,3.49,3.49,0,0,1-1.11-.87,3.67,3.67,0,0,1-.67-1.25,2.74,2.74,0,0,1,0-1.45c0-.54.06-1.08.11-1.62s.07-1.08.07-1.62a2.94,2.94,0,0,1,.21-1.45,3.2,3.2,0,0,1,2-1.85,3.11,3.11,0,0,1,1.46-.13l.65,0A3.51,3.51,0,0,0,194,65.35Zm2.74-32.57a2.82,2.82,0,0,1,1.45.16A3,3,0,0,1,200,35a2.61,2.61,0,0,1,0,1.44c-.05.54-.09,1.09-.14,1.64s-.1,1.1-.14,1.65a3.4,3.4,0,0,1-.27,1.5,3.83,3.83,0,0,1-.84,1.2,3.32,3.32,0,0,1-1.27.75,3.41,3.41,0,0,1-1.49.18c-.23,0-.46,0-.67,0a2.5,2.5,0,0,0-.67,0,2.9,2.9,0,0,1-1.44-.16,3.15,3.15,0,0,1-1.14-.8,3.09,3.09,0,0,1-.68-1.23,2.64,2.64,0,0,1,0-1.45c0-.54.09-1.08.14-1.62s.09-1.09.14-1.63a3.28,3.28,0,0,1,.28-1.48,3.8,3.8,0,0,1,.86-1.22,3.67,3.67,0,0,1,1.27-.77,3.14,3.14,0,0,1,1.53-.16l.67,0A5,5,0,0,1,196.7,32.78ZM199.8.06a2.42,2.42,0,0,1,1.42.15,2.57,2.57,0,0,1,1.07.82,3.34,3.34,0,0,1,.6,1.26,2.81,2.81,0,0,1,0,1.41c0,.54-.09,1.09-.14,1.66s-.09,1.12-.14,1.66a3.28,3.28,0,0,1-.28,1.48,3.9,3.9,0,0,1-.84,1.22,3.6,3.6,0,0,1-1.23.77,3.37,3.37,0,0,1-1.48.2l-.67,0a3.83,3.83,0,0,0-.67,0,2.72,2.72,0,0,1-1.39-.16,3,3,0,0,1-1.1-.78,2.72,2.72,0,0,1-.6-2.63c.07-.54.13-1.09.19-1.64s.11-1.1.16-1.64a3.73,3.73,0,0,1,.3-1.48,4.16,4.16,0,0,1,.81-1.24A3.68,3.68,0,0,1,197,.29a3.18,3.18,0,0,1,1.51-.23Zm2.95,65.43a5.46,5.46,0,0,1,1.2.14,2.84,2.84,0,0,1,1.09.53,3,3,0,0,1,.84,1.5,5.26,5.26,0,0,1,.07,1.47c0,.54-.09,1.09-.14,1.64s-.09,1.1-.14,1.64a3.72,3.72,0,0,1-.28,1.46,3.83,3.83,0,0,1-.79,1.22,3.36,3.36,0,0,1-1.22.8,3.3,3.3,0,0,1-1.47.19,3.53,3.53,0,0,0-.65,0,2,2,0,0,1-.65,0,2.46,2.46,0,0,1-1.43-.19,3.2,3.2,0,0,1-1.09-.83,3.09,3.09,0,0,1-.61-1.23,3,3,0,0,1,0-1.45c0-.54.09-1.09.12-1.64s.07-1.1.09-1.64a3.31,3.31,0,0,1,.26-1.47,3.55,3.55,0,0,1,.83-1.18,3.69,3.69,0,0,1,1.23-.76,3.07,3.07,0,0,1,1.48-.16Zm2.92-32.71a2.77,2.77,0,0,1,1.44.16,2.86,2.86,0,0,1,1.14.79,3.15,3.15,0,0,1,.69,1.24,2.52,2.52,0,0,1,0,1.44c-.05.54-.1,1.09-.16,1.64s-.11,1.1-.16,1.65a3.26,3.26,0,0,1-.26,1.5,3.83,3.83,0,0,1-.84,1.2,3.48,3.48,0,0,1-1.27.75,3.42,3.42,0,0,1-1.49.18h-1.34a2.87,2.87,0,0,1-1.46-.16,2.73,2.73,0,0,1-1.14-.79,3.32,3.32,0,0,1-.67-1.24,2.81,2.81,0,0,1,0-1.44c0-.55.1-1.09.15-1.65s.09-1.1.14-1.64a3.62,3.62,0,0,1,1.17-2.68,4,4,0,0,1,1.25-.76,3.44,3.44,0,0,1,1.51-.19ZM208.34.06a2.55,2.55,0,0,1,1.43.2,3.08,3.08,0,0,1,1.09.83,3.27,3.27,0,0,1,.63,1.23,3.22,3.22,0,0,1,0,1.45c0,.54-.09,1.09-.14,1.66s-.08,1.12-.11,1.66a3.28,3.28,0,0,1-.24,1.46,3.54,3.54,0,0,1-.81,1.2,3.26,3.26,0,0,1-1.23.76,3.2,3.2,0,0,1-1.48.14H206.2a2.63,2.63,0,0,1-1.43-.18,2.84,2.84,0,0,1-1.1-.81A3,3,0,0,1,203,8.45,3.14,3.14,0,0,1,203,7c.05-.54.1-1.1.14-1.66s.1-1.12.14-1.66a3.47,3.47,0,0,1,.25-1.45A3.76,3.76,0,0,1,204.35,1a3.27,3.27,0,0,1,1.2-.81A2.84,2.84,0,0,1,207,0a2.37,2.37,0,0,1,.65,0A2.36,2.36,0,0,0,208.34.06Zm3.17,65.36c.39,0,.79.07,1.17.13a2.08,2.08,0,0,1,1.08.51,2.75,2.75,0,0,1,.82,1.46,5.63,5.63,0,0,1,0,1.47l-.21,1.62c-.07.54-.13,1.08-.17,1.62a3.63,3.63,0,0,1-.32,1.49,4.41,4.41,0,0,1-.82,1.23,3.72,3.72,0,0,1-1.22.83,3,3,0,0,1-1.47.23,2.28,2.28,0,0,0-.64,0,2.22,2.22,0,0,1-.63,0,2.68,2.68,0,0,1-1.42-.15,2.71,2.71,0,0,1-1.08-.8,3.06,3.06,0,0,1-.59-1.23,2.75,2.75,0,0,1,0-1.45c0-.54.1-1.09.16-1.64s.11-1.1.16-1.64a3.24,3.24,0,0,1,.26-1.48,3.53,3.53,0,0,1,.83-1.2,3.91,3.91,0,0,1,1.23-.78,3.07,3.07,0,0,1,1.47-.21c.22,0,.43,0,.66,0A2.39,2.39,0,0,0,211.51,65.42Zm3.12-32.61a2.91,2.91,0,0,1,2.57.94,3.09,3.09,0,0,1,.67,1.22,2.52,2.52,0,0,1,0,1.44c-.05.54-.1,1.09-.16,1.63s-.11,1.08-.16,1.62a3.14,3.14,0,0,1-.28,1.5,3.73,3.73,0,0,1-.84,1.18,3.68,3.68,0,0,1-1.25.76,3.43,3.43,0,0,1-1.49.2,2.4,2.4,0,0,0-.66,0,2.3,2.3,0,0,1-.65,0,2.79,2.79,0,0,1-1.44-.16,3,3,0,0,1-1.14-.79,3.36,3.36,0,0,1-.69-1.24,2.7,2.7,0,0,1,0-1.44c0-.55.09-1.09.14-1.65s.09-1.1.14-1.64a3.28,3.28,0,0,1,.28-1.48,3.61,3.61,0,0,1,.86-1.2,4,4,0,0,1,1.27-.76,3.55,3.55,0,0,1,1.53-.19,3.75,3.75,0,0,0,.67,0A2.47,2.47,0,0,1,214.63,32.81ZM216.85.31a2.7,2.7,0,0,1,1.42.23,3,3,0,0,1,1.11.85,3.36,3.36,0,0,1,.67,1.25,3.08,3.08,0,0,1,.07,1.45c0,.54-.05,1.09-.07,1.64S220,6.83,220,7.37A3,3,0,0,1,219,10a3.62,3.62,0,0,1-1.23.73,3.2,3.2,0,0,1-1.48.14,4.63,4.63,0,0,0-.65,0c-.22,0-.44,0-.65,0a2.59,2.59,0,0,1-1.44-.2,3.12,3.12,0,0,1-1.78-2.06,3,3,0,0,1,0-1.45c0-.54.09-1.08.14-1.62s.08-1.08.1-1.63a3.75,3.75,0,0,1,.23-1.44A3.55,3.55,0,0,1,213,1.14a3.25,3.25,0,0,1,1.17-.78,2.77,2.77,0,0,1,1.46-.12c.21,0,.43,0,.64,0S216.64.29,216.85.31Zm4.67,54a5.13,5.13,0,0,1,1.18.07,2.34,2.34,0,0,1,1.07.5,2.7,2.7,0,0,1,.83,1.44,5.47,5.47,0,0,1,.05,1.45c-.07.54-.14,1.08-.22,1.61s-.15,1.06-.2,1.6a3.44,3.44,0,0,1-.33,1.48,4.13,4.13,0,0,1-.86,1.22,3.6,3.6,0,0,1-1.25.79,3.49,3.49,0,0,1-1.5.25l-.65.07a4.82,4.82,0,0,1-.65,0,6.53,6.53,0,0,1-1.17-.11,2.41,2.41,0,0,1-1.08-.49,2.58,2.58,0,0,1-.8-1.47,5.53,5.53,0,0,1,0-1.46c.07-.54.13-1.08.19-1.62s.11-1.09.16-1.63a3.58,3.58,0,0,1,.32-1.48,3.8,3.8,0,0,1,.86-1.22,4,4,0,0,1,1.25-.79,3.18,3.18,0,0,1,1.51-.21,3.51,3.51,0,0,1,.65,0A5.2,5.2,0,0,0,221.52,54.34Zm1-10.76a2.48,2.48,0,0,1,1.43.12,3.13,3.13,0,0,1,1.16.78,3,3,0,0,1,.67,1.2,2.58,2.58,0,0,1,0,1.43c-.05.54-.1,1.07-.16,1.6s-.11,1.07-.16,1.61a3.31,3.31,0,0,1-.33,1.48,4.09,4.09,0,0,1-.88,1.18,3.79,3.79,0,0,1-2.76,1,3.52,3.52,0,0,0-.65,0c-.2,0-.42,0-.65,0a4.51,4.51,0,0,1-1.21-.08A2.4,2.4,0,0,1,217,52a5.62,5.62,0,0,1,0-1.47c.14-1.1.25-2.18.32-3.24a3.57,3.57,0,0,1,.31-1.48,3.8,3.8,0,0,1,.86-1.22,3.87,3.87,0,0,1,1.25-.78,3.3,3.3,0,0,1,1.51-.19,3.58,3.58,0,0,0,.65,0Zm1.83-21.39a2.67,2.67,0,0,1,1.44.18,3.08,3.08,0,0,1,1.13.81,3.38,3.38,0,0,1,.67,1.22,3,3,0,0,1,.07,1.43c-.05.54-.09,1.06-.13,1.57s-.07,1-.12,1.57a3.16,3.16,0,0,1-.28,1.48,3.51,3.51,0,0,1-.86,1.15,3.78,3.78,0,0,1-1.27.72,3.63,3.63,0,0,1-1.46.18,5.07,5.07,0,0,0-.66,0h-.67a2.77,2.77,0,0,1-1.44-.16,2.88,2.88,0,0,1-1.13-.77,3.3,3.3,0,0,1-.67-1.22,2.74,2.74,0,0,1,0-1.45c0-.54.09-1.08.14-1.6s.09-1.07.14-1.61a3.25,3.25,0,0,1,.26-1.46,3.74,3.74,0,0,1,.83-1.2,3.12,3.12,0,0,1,1.23-.75,3.33,3.33,0,0,1,1.48-.12,4.75,4.75,0,0,0,.66,0A2.43,2.43,0,0,1,224.37,22.19ZM225,11.57a3.17,3.17,0,0,1,1.4.25,2.9,2.9,0,0,1,1.14.81,3.32,3.32,0,0,1,.71,1.22,2.83,2.83,0,0,1,.09,1.42c0,.55-.06,1.08-.11,1.59s-.07,1.05-.07,1.59a3.09,3.09,0,0,1-.26,1.43,3.18,3.18,0,0,1-.83,1.11,3.38,3.38,0,0,1-1.23.69,3.19,3.19,0,0,1-1.44.12h-.67c-.21,0-.43,0-.67,0a2.66,2.66,0,0,1-1.42-.18,3.19,3.19,0,0,1-1.16-.79,2.86,2.86,0,0,1-.67-1.22,3,3,0,0,1,0-1.45c0-.54.08-1.07.11-1.6s0-1.07.07-1.61a2.83,2.83,0,0,1,.23-1.45,3.65,3.65,0,0,1,.82-1.16,3.21,3.21,0,0,1,1.22-.72,2.72,2.72,0,0,1,1.45-.09h.43l.58.05Z" />
        <path
            d="M232.87,54.13a2.69,2.69,0,0,1,1.44.18,3.06,3.06,0,0,1,1.14.81,3,3,0,0,1,.67,1.23,3.22,3.22,0,0,1,0,1.45c0,.54-.09,1.08-.12,1.61S236,60.47,236,61a3.45,3.45,0,0,1-.25,1.47,3,3,0,0,1-.81,1.16,3.42,3.42,0,0,1-1.23.71,3.29,3.29,0,0,1-1.47.12c-.21,0-.44,0-.67,0s-.46,0-.67,0a2.78,2.78,0,0,1-1.4-.21,3.35,3.35,0,0,1-1.15-.8,3.27,3.27,0,0,1-.7-1.2,2.57,2.57,0,0,1-.05-1.43c0-.54.06-1.07.1-1.58s.08-1,.11-1.59a3.07,3.07,0,0,1,.26-1.45,3.43,3.43,0,0,1,.83-1.15,3.78,3.78,0,0,1,1.21-.72,3.1,3.1,0,0,1,1.46-.14Zm1-10.73a2.63,2.63,0,0,1,1.42.12,3,3,0,0,1,1.15.8,3.32,3.32,0,0,1,.66,1.23,2.39,2.39,0,0,1,0,1.45c0,.54-.1,1.08-.15,1.62s-.11,1.09-.16,1.63a3.6,3.6,0,0,1-.3,1.46,3.35,3.35,0,0,1-.84,1.18,3.79,3.79,0,0,1-1.25.75,3.2,3.2,0,0,1-1.48.14,3.78,3.78,0,0,1-.67,0h-.66a2.78,2.78,0,0,1-1.41-.16,2.88,2.88,0,0,1-1.14-.8,3,3,0,0,1-.67-1.21,2.77,2.77,0,0,1,0-1.43c0-.54.09-1.07.14-1.59s.1-1.05.14-1.59a3.13,3.13,0,0,1,.28-1.46,3.67,3.67,0,0,1,.86-1.19,4,4,0,0,1,1.27-.76,3.43,3.43,0,0,1,1.49-.19,3.74,3.74,0,0,1,.67,0A3.75,3.75,0,0,0,233.85,43.4ZM235,32.64a2.42,2.42,0,0,1,1.41.12,3,3,0,0,1,1.12.78,2.79,2.79,0,0,1,.6,2.63c-.07.54-.14,1.09-.19,1.64s-.12,1.1-.16,1.64a3.45,3.45,0,0,1-.32,1.48,3.7,3.7,0,0,1-.86,1.17,3.85,3.85,0,0,1-1.27.75,3.27,3.27,0,0,1-1.49.2h-1.34a2.87,2.87,0,0,1-1.4-.14A2.78,2.78,0,0,1,229.33,41a2.58,2.58,0,0,1,0-1.43c.07-.54.14-1.07.21-1.58s.13-1,.18-1.59a3.44,3.44,0,0,1,.33-1.48,3.81,3.81,0,0,1,.88-1.2,4.12,4.12,0,0,1,1.25-.78,3.18,3.18,0,0,1,1.51-.21l.65-.07A2.36,2.36,0,0,1,235,32.64ZM241,65a3,3,0,0,1,1.44.22,2.87,2.87,0,0,1,1.13.81,3.16,3.16,0,0,1,.65,1.23,3,3,0,0,1,0,1.45c0,.54-.06,1.09-.11,1.64S244,71.48,244,72a3.44,3.44,0,0,1-.25,1.45,3.33,3.33,0,0,1-1.95,2,3,3,0,0,1-1.46.16,2.25,2.25,0,0,0-.63-.06l-.63,0a2.73,2.73,0,0,1-1.41-.23,3.24,3.24,0,0,1-1.79-2.06,3.09,3.09,0,0,1-.07-1.45c0-.54,0-1.09.05-1.64s0-1.1,0-1.64a3,3,0,0,1,.23-1.47A3.37,3.37,0,0,1,237,65.9a3.45,3.45,0,0,1,1.21-.72,3,3,0,0,1,1.46-.15,3.51,3.51,0,0,0,.65,0Zm1.83-21.66a2.87,2.87,0,0,1,1.44.15,3,3,0,0,1,1.14.8,3.11,3.11,0,0,1,.69,1.23,2.56,2.56,0,0,1,0,1.45c-.05.54-.1,1.08-.16,1.62s-.11,1.09-.16,1.63a3.14,3.14,0,0,1-.28,1.5,3.42,3.42,0,0,1-.88,1.18,4,4,0,0,1-1.28.76,3.14,3.14,0,0,1-1.49.16c-.45,0-.88,0-1.31,0a2.86,2.86,0,0,1-1.42-.16,3,3,0,0,1-1.16-.8,3.09,3.09,0,0,1-.68-1.23,2.39,2.39,0,0,1,0-1.45c0-.54.09-1.07.14-1.6s.09-1.07.14-1.61a3.62,3.62,0,0,1,1.17-2.68,4,4,0,0,1,1.27-.76,3.29,3.29,0,0,1,1.49-.19,3.83,3.83,0,0,1,.67,0Zm2.14-21.81a5.76,5.76,0,0,1,1.18.12,2.47,2.47,0,0,1,1.07.51,3.26,3.26,0,0,1,.81,1.54,4.83,4.83,0,0,1,.07,1.46c0,.54-.1,1.09-.15,1.64s-.12,1.1-.16,1.64a3.3,3.3,0,0,1-.28,1.49,4.06,4.06,0,0,1-.85,1.21,3.58,3.58,0,0,1-1.25.78,3,3,0,0,1-1.49.16c-.21,0-.43,0-.65,0h-.65a4.16,4.16,0,0,1-1.21-.1,3.11,3.11,0,0,1-1.11-.5,2.9,2.9,0,0,1-.79-1.5,6,6,0,0,1-.06-1.46c.1-.54.17-1.09.22-1.64s.1-1.1.17-1.64a3.66,3.66,0,0,1,.32-1.49A3.86,3.86,0,0,1,241,22.6a3.92,3.92,0,0,1,1.21-.8,3.24,3.24,0,0,1,1.5-.21,2.24,2.24,0,0,1,.63-.05Zm4.86,43.58a2.79,2.79,0,0,1,1.44.16,2.75,2.75,0,0,1,1.1.79,3.26,3.26,0,0,1,.64,1.24,2.65,2.65,0,0,1,0,1.45c-.05.54-.09,1.09-.14,1.65s-.09,1.12-.14,1.66a3.66,3.66,0,0,1-.3,1.45,4,4,0,0,1-.79,1.22,3.14,3.14,0,0,1-1.2.77,3.33,3.33,0,0,1-1.47.2h-1.27a3,3,0,0,1-1.4-.21,2.92,2.92,0,0,1-1.13-.82,3.23,3.23,0,0,1-.65-1.21,2.88,2.88,0,0,1,0-1.43c0-.54.06-1.1.11-1.66s.08-1.12.1-1.66a3.57,3.57,0,0,1,.3-1.46,3.74,3.74,0,0,1,.83-1.2A3.45,3.45,0,0,1,247,65.3a3,3,0,0,1,1.5-.16Zm2-21.77a2.92,2.92,0,0,1,1.45.15,3.15,3.15,0,0,1,1.14.8,3,3,0,0,1,.67,1.23A2.65,2.65,0,0,1,255,47c0,.54-.09,1.08-.14,1.62s-.1,1.09-.14,1.63a3.27,3.27,0,0,1-.28,1.5,3.82,3.82,0,0,1-.86,1.2,3.66,3.66,0,0,1-1.29.77,3.1,3.1,0,0,1-1.51.16h-1.34a2.79,2.79,0,0,1-1.44-.16,3,3,0,0,1-1.14-.79,2.93,2.93,0,0,1-.67-1.24,2.61,2.61,0,0,1,0-1.44c.05-.54.09-1.09.14-1.64s.09-1.1.14-1.64a3.58,3.58,0,0,1,3.94-3.6Zm1.73-21.85a2.51,2.51,0,0,1,1.42.2,3.08,3.08,0,0,1,1.09.82,3.39,3.39,0,0,1,.63,1.24,3.22,3.22,0,0,1,.06,1.45c-.05.54-.1,1.09-.14,1.64s-.09,1.1-.11,1.64a3.53,3.53,0,0,1-.25,1.48,3.31,3.31,0,0,1-.79,1.2,3.51,3.51,0,0,1-1.21.76,3,3,0,0,1-1.48.16h-1.3a2.77,2.77,0,0,1-2.55-1,3.45,3.45,0,0,1-.65-1.23,2.74,2.74,0,0,1,0-1.45c.07-.54.13-1.09.17-1.64l.15-1.64a3.37,3.37,0,0,1,.24-1.48,3.52,3.52,0,0,1,2-2,2.84,2.84,0,0,1,1.49-.18Zm5.1,43.58a2.46,2.46,0,0,1,1.4.13,2.68,2.68,0,0,1,1.11.77,3,3,0,0,1,.61,1.2,2.68,2.68,0,0,1,0,1.43c-.05.55-.11,1.1-.18,1.66s-.13,1.12-.17,1.66a4.06,4.06,0,0,1-.35,1.47,4.48,4.48,0,0,1-.85,1.21,3.38,3.38,0,0,1-1.23.81,3.22,3.22,0,0,1-1.48.22,2.22,2.22,0,0,0-.63,0,1.91,1.91,0,0,1-.63,0,2.61,2.61,0,0,1-1.39-.17,3,3,0,0,1-1.09-.8,2.85,2.85,0,0,1-.61-1.2,2.68,2.68,0,0,1,0-1.43c0-.54.09-1.09.14-1.66s.1-1.11.14-1.65a3.78,3.78,0,0,1,.3-1.49,3.56,3.56,0,0,1,.84-1.21,3.71,3.71,0,0,1,1.25-.78,3.46,3.46,0,0,1,1.51-.2Zm2.07-21.73a2.64,2.64,0,0,1,1.42.17,3.21,3.21,0,0,1,1.16.8,3,3,0,0,1,.69,1.21,2.56,2.56,0,0,1,0,1.45c-.05.54-.09,1.08-.14,1.61s-.1,1.06-.14,1.6a3.57,3.57,0,0,1-.32,1.5,3.82,3.82,0,0,1-.86,1.2,3.76,3.76,0,0,1-1.27.78,3.41,3.41,0,0,1-1.49.19c-.45,0-.89,0-1.34,0a2.79,2.79,0,0,1-1.44-.16,3,3,0,0,1-1.14-.79,2.93,2.93,0,0,1-.67-1.24,2.61,2.61,0,0,1,0-1.44c0-.54.1-1.08.16-1.63s.11-1.08.16-1.62a3.9,3.9,0,0,1,.29-1.48,3.45,3.45,0,0,1,.85-1.2,3.88,3.88,0,0,1,1.25-.76,3.3,3.3,0,0,1,1.51-.19,3.57,3.57,0,0,0,.65,0ZM262,21.7a2.7,2.7,0,0,1,1.42.23,3.24,3.24,0,0,1,1.11.83,3.32,3.32,0,0,1,.66,1.23,3.22,3.22,0,0,1,.11,1.45q0,.81-.09,1.62c0,.54-.05,1.08-.05,1.62a3.1,3.1,0,0,1-1,2.62,3.49,3.49,0,0,1-1.21.74,3.1,3.1,0,0,1-1.46.14,3.53,3.53,0,0,1-.65,0,3.53,3.53,0,0,0-.65,0,2.69,2.69,0,0,1-1.44-.18,3,3,0,0,1-1.12-.81A3.2,3.2,0,0,1,257,30a3,3,0,0,1-.07-1.45c0-.54.08-1.09.1-1.64s.06-1.1.11-1.64a3,3,0,0,1,.21-1.45,3.73,3.73,0,0,1,.77-1.22,3,3,0,0,1,2.64-.9h.63A4.68,4.68,0,0,1,262,21.7Zm7.59,21.7a2.65,2.65,0,0,1,1.42.18,3.27,3.27,0,0,1,1.16.77,2.87,2.87,0,0,1,.69,1.2,2.56,2.56,0,0,1,0,1.45c0,.54-.1,1.07-.14,1.59s-.1,1-.14,1.59a3.57,3.57,0,0,1-.32,1.5,3.63,3.63,0,0,1-.86,1.18,3.87,3.87,0,0,1-1.27.76,3.41,3.41,0,0,1-1.49.19,5.1,5.1,0,0,0-.67,0c-.21,0-.43,0-.67,0a6.36,6.36,0,0,1-1.21-.12,2.56,2.56,0,0,1-1.11-.51,3.31,3.31,0,0,1-.82-1.5,4.62,4.62,0,0,1-.09-1.47c.05-.54.1-1.07.16-1.6s.11-1.07.16-1.61a3.13,3.13,0,0,1,.28-1.48,3.6,3.6,0,0,1,2.07-2,3,3,0,0,1,1.51-.16,5.15,5.15,0,0,0,.67,0Zm.7-10.62a2.83,2.83,0,0,1,1.41.21,3.38,3.38,0,0,1,1.14.79,3.22,3.22,0,0,1,.7,1.22,2.74,2.74,0,0,1,.09,1.45c0,.54-.09,1.07-.12,1.59s-.07,1-.09,1.58a3.06,3.06,0,0,1-.28,1.45,3.51,3.51,0,0,1-.86,1.15,3.42,3.42,0,0,1-1.25.7,3.06,3.06,0,0,1-1.44.13,5.35,5.35,0,0,1-.69,0c-.22,0-.44,0-.65,0a2.75,2.75,0,0,1-1.42-.16,3.13,3.13,0,0,1-1.16-.78A2.82,2.82,0,0,1,265,40.9a3,3,0,0,1,0-1.45c.05-.54.09-1.08.13-1.61s.06-1.06.08-1.6a3,3,0,0,1,.23-1.47,3.55,3.55,0,0,1,.83-1.18,3.35,3.35,0,0,1,1.23-.74,2.84,2.84,0,0,1,1.48-.11,3.59,3.59,0,0,0,.66,0A4.85,4.85,0,0,1,270.27,32.78Z" />
    </g>
    <g id="fed-group">
        <path
            d="M279.29,65a3.22,3.22,0,0,1,1.43.25,3,3,0,0,1,1.12.81,3.12,3.12,0,0,1,.76,2.68c-.05.54-.08,1.08-.11,1.62s0,1.09-.07,1.63a3.17,3.17,0,0,1-.19,1.43,3.3,3.3,0,0,1-.76,1.16,3.09,3.09,0,0,1-1.17.71,2.57,2.57,0,0,1-1.43,0l-1.26-.11a3.25,3.25,0,0,1-1.43-.31,3.38,3.38,0,0,1-1.77-2.12,3.37,3.37,0,0,1-.11-1.45c0-.54.05-1.06.07-1.57s0-1,0-1.57a2.94,2.94,0,0,1,.19-1.41,3,3,0,0,1,.77-1.13,3.08,3.08,0,0,1,1.2-.67,2.84,2.84,0,0,1,1.42-.07l.65,0ZM280,54.31a2.91,2.91,0,0,1,1.44.21,3,3,0,0,1,1.12.81,3.2,3.2,0,0,1,.67,1.23,2.85,2.85,0,0,1,0,1.45c0,.54-.09,1.08-.11,1.62s-.06,1.09-.1,1.63A3.27,3.27,0,0,1,282,63.85a3.42,3.42,0,0,1-1.23.71,3.07,3.07,0,0,1-1.48.09,4.54,4.54,0,0,0-.65,0c-.22,0-.44,0-.65,0a3.06,3.06,0,0,1-1.42-.27,3.27,3.27,0,0,1-1.78-2.06,3.09,3.09,0,0,1-.07-1.45c.12-1.06.19-2.11.21-3.14a3.06,3.06,0,0,1,.22-1.45,3.1,3.1,0,0,1,.8-1.15,3.49,3.49,0,0,1,1.25-.7,3.15,3.15,0,0,1,1.46-.12c.24,0,.46,0,.67,0S279.76,54.31,280,54.31Zm.84-10.73a2.77,2.77,0,0,1,1.44.17,3,3,0,0,1,1.13.82,3.32,3.32,0,0,1,.66,1.23,2.64,2.64,0,0,1,0,1.45c-.05.54-.1,1.08-.16,1.62s-.1,1.08-.12,1.62a3.46,3.46,0,0,1-.26,1.47,3.21,3.21,0,0,1-.85,1.16,3.45,3.45,0,0,1-1.25.71A3.3,3.3,0,0,1,280,54a3.72,3.72,0,0,0-.67,0,2.43,2.43,0,0,1-.67-.06,3.1,3.1,0,0,1-1.42-.19,3,3,0,0,1-1.16-.78,2.93,2.93,0,0,1-.69-2.66q.08-.81.12-1.59c0-.52.08-1,.13-1.59a3,3,0,0,1,.28-1.46,3.49,3.49,0,0,1,.86-1.17,3.62,3.62,0,0,1,1.25-.72,3,3,0,0,1,1.47-.14Zm1-10.77a2.87,2.87,0,0,1,1.44.16,3.05,3.05,0,0,1,1.14.78A2.86,2.86,0,0,1,285,35a2.61,2.61,0,0,1,0,1.44c0,.54-.09,1.09-.14,1.63s-.09,1.08-.14,1.62a3.26,3.26,0,0,1-.26,1.5,3.44,3.44,0,0,1-.84,1.18,3.6,3.6,0,0,1-1.27.74,3,3,0,0,1-1.49.14h-1.34a2.55,2.55,0,0,1-1.42-.17,3.29,3.29,0,0,1-1.16-.78,2.9,2.9,0,0,1-.73-2.65c0-.54.1-1.07.16-1.6s.11-1.07.16-1.61a3.49,3.49,0,0,1,.32-1.46,3.73,3.73,0,0,1,.84-1.18A3.53,3.53,0,0,1,279,33a3.43,3.43,0,0,1,1.49-.2Zm1-10.8a6.41,6.41,0,0,1,1.22.13,2.47,2.47,0,0,1,1.1.51,3.07,3.07,0,0,1,.85,1.48,5.1,5.1,0,0,1,.07,1.45c-.14,1.13-.25,2.21-.32,3.25a3.61,3.61,0,0,1-.31,1.48,3.89,3.89,0,0,1-.85,1.2,3.68,3.68,0,0,1-1.25.76,3.41,3.41,0,0,1-1.49.19,5.1,5.1,0,0,0-.67,0c-.21,0-.43,0-.67,0a2.75,2.75,0,0,1-1.42-.16,2.94,2.94,0,0,1-1.83-2,2.58,2.58,0,0,1,0-1.43c0-.54.11-1.07.18-1.57s.12-1,.17-1.57a3.63,3.63,0,0,1,.32-1.49,3.7,3.7,0,0,1,.84-1.2,3.87,3.87,0,0,1,1.25-.77,3.63,3.63,0,0,1,1.49-.25h.65A4.54,4.54,0,0,0,282.84,22ZM284,11.25a2.59,2.59,0,0,1,1.41.11,2.73,2.73,0,0,1,1.12.76,2.79,2.79,0,0,1,.6,2.63c-.05.54-.11,1.08-.18,1.64s-.13,1.1-.17,1.64a3.46,3.46,0,0,1-.32,1.46,3.82,3.82,0,0,1-.86,1.2,3.76,3.76,0,0,1-1.27.78,3.41,3.41,0,0,1-1.49.19,4.44,4.44,0,0,1-.63,0h-.67a2.59,2.59,0,0,1-1.41-.11,2.81,2.81,0,0,1-1.77-1.92,2.58,2.58,0,0,1,0-1.43c.07-.54.15-1.08.22-1.61s.12-1.06.17-1.6a4,4,0,0,1,.35-1.48,3.85,3.85,0,0,1,2.08-2,3.61,3.61,0,0,1,1.51-.24,3.51,3.51,0,0,1,.65,0A3.51,3.51,0,0,0,284,11.25ZM285.31.31a2.54,2.54,0,0,1,2.46.88,3.15,3.15,0,0,1,.58,1.24,2.81,2.81,0,0,1-.06,1.41c-.07.54-.13,1.09-.19,1.66s-.11,1.12-.16,1.66a3.57,3.57,0,0,1-.31,1.48,4.1,4.1,0,0,1-.85,1.22,3.76,3.76,0,0,1-1.23.79,3.09,3.09,0,0,1-1.48.21,4.54,4.54,0,0,1-.65,0c-.22,0-.44,0-.65,0a4.58,4.58,0,0,1-1.17-.07,2.41,2.41,0,0,1-1.08-.49,3.05,3.05,0,0,1-.79-1.47,4.51,4.51,0,0,1,0-1.42c.07-.55.14-1.09.22-1.65s.15-1.1.2-1.64a4,4,0,0,1,.35-1.48,4.07,4.07,0,0,1,.84-1.23,3.77,3.77,0,0,1,1.22-.83A3.33,3.33,0,0,1,284,.38l.63-.07A3.42,3.42,0,0,1,285.31.31Zm5.41,32.47a2.78,2.78,0,0,1,1.44.16,2.86,2.86,0,0,1,1.14.79A3.15,3.15,0,0,1,294,35a2.52,2.52,0,0,1,0,1.44c-.05.54-.09,1.09-.14,1.64s-.1,1.1-.14,1.65a3.27,3.27,0,0,1-.28,1.5,4.07,4.07,0,0,1-.86,1.2,3.48,3.48,0,0,1-1.27.75,3.42,3.42,0,0,1-1.49.18l-.67,0h-.67a2.67,2.67,0,0,1-1.44-.18,3.1,3.1,0,0,1-1.14-.8,3,3,0,0,1-.69-1.21,2.85,2.85,0,0,1,0-1.45c0-.54.1-1.08.16-1.62s.11-1.09.16-1.63a3.68,3.68,0,0,1,1.18-2.68,3.88,3.88,0,0,1,1.25-.76,3.44,3.44,0,0,1,1.51-.19C289.84,32.8,290.27,32.8,290.72,32.78ZM293.85.06a2.42,2.42,0,0,1,1.42.15,2.57,2.57,0,0,1,1.07.82,3.34,3.34,0,0,1,.6,1.26,2.81,2.81,0,0,1,0,1.41c0,.54-.09,1.09-.14,1.66s-.09,1.12-.14,1.66a3.28,3.28,0,0,1-.28,1.48,3.9,3.9,0,0,1-.84,1.22,3.6,3.6,0,0,1-1.23.77,3.37,3.37,0,0,1-1.48.2,2.5,2.5,0,0,0-.67,0,3.74,3.74,0,0,1-.67,0,7.49,7.49,0,0,1-1.17-.09,2.16,2.16,0,0,1-1.08-.51,3.2,3.2,0,0,1-.84-1.52,4.43,4.43,0,0,1,0-1.45c.07-.54.14-1.09.2-1.64s.11-1.1.16-1.64A3.57,3.57,0,0,1,289,2.36a4.42,4.42,0,0,1,.83-1.24,3.68,3.68,0,0,1,1.21-.83,3.18,3.18,0,0,1,1.51-.23Zm5.83,32.72a2.82,2.82,0,0,1,1.45.16,3,3,0,0,1,1.14.79A3.26,3.26,0,0,1,303,35a2.52,2.52,0,0,1,0,1.44c0,.54-.09,1.09-.14,1.64s-.09,1.1-.14,1.65a3.14,3.14,0,0,1-.28,1.5,4.07,4.07,0,0,1-.86,1.2,3.63,3.63,0,0,1-2.76.93h-1.3a2.77,2.77,0,0,1-1.44-.16,2.86,2.86,0,0,1-1.14-.79,3.22,3.22,0,0,1-.69-1.24,2.81,2.81,0,0,1,0-1.44l.15-1.65c0-.55.09-1.1.14-1.64a3.15,3.15,0,0,1,.28-1.48,3.61,3.61,0,0,1,.86-1.2,3.83,3.83,0,0,1,1.26-.76,3.55,3.55,0,0,1,1.53-.19ZM302.36.06a2.69,2.69,0,0,1,1.44.18,2.84,2.84,0,0,1,1.1.83,3.38,3.38,0,0,1,.64,1.25,3,3,0,0,1,0,1.45c-.05.54-.09,1.09-.11,1.66s-.06,1.12-.11,1.66a3.28,3.28,0,0,1-.24,1.46,3.54,3.54,0,0,1-.81,1.2,3.3,3.3,0,0,1-2.74.9h-1.3a2.73,2.73,0,0,1-1.43-.16,2.8,2.8,0,0,1-1.1-.79,2.94,2.94,0,0,1-.64-1.24,3.18,3.18,0,0,1,0-1.44c.05-.54.1-1.1.16-1.66s.1-1.12.12-1.66a3.87,3.87,0,0,1,.29-1.45A3.61,3.61,0,0,1,298.44,1a3.33,3.33,0,0,1,1.17-.81A2.8,2.8,0,0,1,301.09,0h.63C301.93,0,302.15,0,302.36.06Zm6.29,32.75a2.85,2.85,0,0,1,1.42.16,3,3,0,0,1,1.16.78,3,3,0,0,1,.69,1.22,2.52,2.52,0,0,1,0,1.44c-.05.54-.1,1.09-.16,1.63s-.11,1.08-.16,1.62a3.14,3.14,0,0,1-.28,1.5,3.93,3.93,0,0,1-.84,1.2,3.58,3.58,0,0,1-1.25.78,3.17,3.17,0,0,1-1.5.16,4.89,4.89,0,0,1-.66,0h-.67a2.87,2.87,0,0,1-1.44-.16,3.05,3.05,0,0,1-1.14-.78,3,3,0,0,1-.69-1.22,2.81,2.81,0,0,1,0-1.44c.05-.55.1-1.09.14-1.65l.15-1.64a3.61,3.61,0,0,1,.31-1.48,3.8,3.8,0,0,1,.86-1.22,3.68,3.68,0,0,1,1.25-.77,3,3,0,0,1,1.51-.16,5.15,5.15,0,0,1,.67,0ZM310.9.28a2.7,2.7,0,0,1,1.42.23,3.09,3.09,0,0,1,1.11.84,3.36,3.36,0,0,1,.65,1.26,3,3,0,0,1,.05,1.44c0,.54,0,1.09-.07,1.64s0,1.1-.07,1.64a3,3,0,0,1-.21,1.47A3.11,3.11,0,0,1,313,10a3.28,3.28,0,0,1-1.21.71,3.23,3.23,0,0,1-1.46.12,1.67,1.67,0,0,0-.63,0,1.91,1.91,0,0,1-.63,0,2.72,2.72,0,0,1-1.45-.18,3,3,0,0,1-1.12-.81,3.17,3.17,0,0,1-.67-1.24,2.7,2.7,0,0,1,0-1.44c0-.54.09-1.1.14-1.66s.07-1.12.07-1.66a3.46,3.46,0,0,1,.24-1.45A3.71,3.71,0,0,1,307,1.11a3,3,0,0,1,2.63-.9c.21,0,.43,0,.64,0A4.44,4.44,0,0,1,310.9.28Zm8.51.53a3.22,3.22,0,0,1,1.4.31A3.63,3.63,0,0,1,322,2a3.19,3.19,0,0,1,.68,1.24,3.34,3.34,0,0,1,.11,1.44c0,.54,0,1.07,0,1.59s0,1,0,1.59a2.63,2.63,0,0,1-.18,1.43,3.36,3.36,0,0,1-.81,1.13,3.22,3.22,0,0,1-1.21.68,2.84,2.84,0,0,1-1.42.08c-.22,0-.43-.05-.66-.06l-.65,0a2.81,2.81,0,0,1-1.44-.22,3.22,3.22,0,0,1-1.12-.83,3.32,3.32,0,0,1-.67-1.24,3.08,3.08,0,0,1-.07-1.45c.05-.54.08-1.08.11-1.62s0-1.08,0-1.62a3.15,3.15,0,0,1,.19-1.43,3.25,3.25,0,0,1,.76-1.17,3.11,3.11,0,0,1,1.16-.7A2.79,2.79,0,0,1,318.14.7Z" />
        <path
            d="M326.92,54.13a2.69,2.69,0,0,1,1.44.18,3.06,3.06,0,0,1,1.14.81,3,3,0,0,1,.67,1.23,3.22,3.22,0,0,1,.05,1.45c-.05.54-.09,1.08-.12,1.61S330,60.47,330,61a3.45,3.45,0,0,1-.25,1.47,3,3,0,0,1-.81,1.16,3.42,3.42,0,0,1-1.23.71,3.29,3.29,0,0,1-1.47.12c-.21,0-.44,0-.67,0s-.46,0-.67,0a2.78,2.78,0,0,1-1.4-.21,3.35,3.35,0,0,1-1.15-.8,3.27,3.27,0,0,1-.7-1.2,2.57,2.57,0,0,1-.05-1.43c0-.54.06-1.07.1-1.58s.08-1,.11-1.59a3.07,3.07,0,0,1,.26-1.45,3.43,3.43,0,0,1,.83-1.15,3.78,3.78,0,0,1,1.21-.72,3.1,3.1,0,0,1,1.46-.14Zm1-10.73a2.63,2.63,0,0,1,1.42.12,3,3,0,0,1,1.15.8,3.32,3.32,0,0,1,.66,1.23,2.56,2.56,0,0,1,0,1.45c0,.54-.1,1.08-.15,1.62s-.12,1.09-.16,1.63a3.6,3.6,0,0,1-.3,1.46,3.35,3.35,0,0,1-.84,1.18,3.79,3.79,0,0,1-1.25.75,3.2,3.2,0,0,1-1.48.14,3.78,3.78,0,0,1-.67,0h-.67a2.76,2.76,0,0,1-1.4-.16,2.88,2.88,0,0,1-1.14-.8,3,3,0,0,1-.67-1.21,2.77,2.77,0,0,1,0-1.43c.05-.54.09-1.07.14-1.59s.09-1.05.14-1.59a3.13,3.13,0,0,1,.28-1.46,3.67,3.67,0,0,1,.86-1.19,4,4,0,0,1,1.27-.76,3.43,3.43,0,0,1,1.49-.19,3.74,3.74,0,0,1,.67,0A3.75,3.75,0,0,0,327.9,43.4Zm1.16-10.76a2.42,2.42,0,0,1,1.41.12,3,3,0,0,1,1.12.78,2.79,2.79,0,0,1,.6,2.63c-.07.54-.14,1.09-.19,1.64s-.12,1.1-.16,1.64a3.45,3.45,0,0,1-.32,1.48,3.7,3.7,0,0,1-.86,1.17,3.85,3.85,0,0,1-1.27.75,3.27,3.27,0,0,1-1.49.2h-1.34a2.87,2.87,0,0,1-1.4-.14A2.78,2.78,0,0,1,323.38,41a2.58,2.58,0,0,1,0-1.43c.07-.54.14-1.07.21-1.58s.13-1,.18-1.59a3.44,3.44,0,0,1,.33-1.48,3.81,3.81,0,0,1,.88-1.2,4.12,4.12,0,0,1,1.25-.78,3.18,3.18,0,0,1,1.51-.21l.65-.07A2.36,2.36,0,0,1,329.06,32.64ZM335,65a3,3,0,0,1,1.44.22,2.87,2.87,0,0,1,1.13.81,3.16,3.16,0,0,1,.65,1.23,3,3,0,0,1,0,1.45c0,.54-.06,1.09-.11,1.64s-.07,1.1-.07,1.64a3.44,3.44,0,0,1-.25,1.45,3.33,3.33,0,0,1-1.95,2,3,3,0,0,1-1.46.16,2.25,2.25,0,0,0-.63-.06l-.63,0a2.73,2.73,0,0,1-1.41-.23,3.24,3.24,0,0,1-1.79-2.06,3,3,0,0,1-.07-1.45c0-.54,0-1.09.05-1.64s.05-1.1.05-1.64a3,3,0,0,1,.23-1.47A3.37,3.37,0,0,1,331,65.9a3.45,3.45,0,0,1,1.21-.72A3,3,0,0,1,333.7,65a3.51,3.51,0,0,0,.65,0Zm1.83-21.66a2.87,2.87,0,0,1,1.44.15,3,3,0,0,1,1.14.8,3.11,3.11,0,0,1,.69,1.23,2.56,2.56,0,0,1,0,1.45c-.05.54-.1,1.08-.16,1.62s-.11,1.09-.16,1.63a3.14,3.14,0,0,1-.28,1.5,3.42,3.42,0,0,1-.88,1.18,4,4,0,0,1-1.28.76,3.14,3.14,0,0,1-1.49.16c-.45,0-.88,0-1.31,0a2.86,2.86,0,0,1-1.42-.16,3,3,0,0,1-1.16-.8,3.24,3.24,0,0,1-.69-1.23,2.55,2.55,0,0,1,0-1.45l.15-1.6c0-.53.09-1.07.14-1.61a3.62,3.62,0,0,1,1.17-2.68,4,4,0,0,1,1.27-.76,3.29,3.29,0,0,1,1.49-.19,3.83,3.83,0,0,1,.67,0ZM339,21.56a5.76,5.76,0,0,1,1.18.12,2.47,2.47,0,0,1,1.07.51,3.26,3.26,0,0,1,.81,1.54,4.83,4.83,0,0,1,.07,1.46c0,.54-.1,1.09-.16,1.64s-.11,1.1-.15,1.64a3.3,3.3,0,0,1-.28,1.49,4.06,4.06,0,0,1-.85,1.21,3.58,3.58,0,0,1-1.25.78,3,3,0,0,1-1.49.16c-.21,0-.43,0-.65,0h-.65a4.16,4.16,0,0,1-1.21-.1,3.11,3.11,0,0,1-1.11-.5,2.9,2.9,0,0,1-.79-1.5,6,6,0,0,1-.06-1.46c.1-.54.17-1.09.22-1.64s.1-1.1.17-1.64a3.66,3.66,0,0,1,.32-1.49A3.86,3.86,0,0,1,335,22.6a3.92,3.92,0,0,1,1.21-.8,3.24,3.24,0,0,1,1.5-.21,2.24,2.24,0,0,1,.63-.05Zm4.86,43.58a2.79,2.79,0,0,1,1.44.16,2.75,2.75,0,0,1,1.1.79,3.26,3.26,0,0,1,.64,1.24,2.65,2.65,0,0,1,0,1.45c-.05.54-.09,1.09-.14,1.65s-.09,1.12-.14,1.66a3.66,3.66,0,0,1-.3,1.45,4,4,0,0,1-.79,1.22,3.14,3.14,0,0,1-1.2.77,3.33,3.33,0,0,1-1.47.2h-1.27a3.07,3.07,0,0,1-1.41-.21,3,3,0,0,1-1.12-.82,3.23,3.23,0,0,1-.65-1.21,2.77,2.77,0,0,1,0-1.43c0-.54.06-1.1.11-1.66s.08-1.12.1-1.66a3.57,3.57,0,0,1,.3-1.46,3.74,3.74,0,0,1,.83-1.2A3.45,3.45,0,0,1,341,65.3a3,3,0,0,1,1.49-.16Zm2-21.77a2.92,2.92,0,0,1,1.45.15,3.15,3.15,0,0,1,1.14.8,3.07,3.07,0,0,1,.67,1.23A2.65,2.65,0,0,1,349,47c0,.54-.09,1.08-.14,1.62s-.1,1.09-.14,1.63a3.27,3.27,0,0,1-.28,1.5,3.82,3.82,0,0,1-.86,1.2,3.66,3.66,0,0,1-1.29.77,3.1,3.1,0,0,1-1.51.16h-1.34a2.79,2.79,0,0,1-1.44-.16,3,3,0,0,1-1.14-.79,2.93,2.93,0,0,1-.67-1.24,2.61,2.61,0,0,1,0-1.44c.05-.54.09-1.09.14-1.64s.09-1.1.14-1.64a3.58,3.58,0,0,1,3.94-3.6Zm1.73-21.85a2.51,2.51,0,0,1,1.42.2,3.08,3.08,0,0,1,1.09.82,3.39,3.39,0,0,1,.63,1.24,3.22,3.22,0,0,1,.06,1.45c-.05.54-.1,1.09-.14,1.64s-.09,1.1-.11,1.64a3.53,3.53,0,0,1-.25,1.48,3.31,3.31,0,0,1-.79,1.2,3.51,3.51,0,0,1-1.21.76,3,3,0,0,1-1.48.16h-1.3a2.77,2.77,0,0,1-2.55-1,3.45,3.45,0,0,1-.65-1.23,2.74,2.74,0,0,1,0-1.45c.07-.54.13-1.09.17-1.64s.1-1.1.14-1.64a3.53,3.53,0,0,1,.25-1.48,3.52,3.52,0,0,1,2-2,2.84,2.84,0,0,1,1.49-.18Zm5.09,43.58a2.49,2.49,0,0,1,1.41.13,2.68,2.68,0,0,1,1.11.77,3,3,0,0,1,.61,1.2,2.68,2.68,0,0,1,0,1.43c0,.55-.11,1.1-.18,1.66s-.13,1.12-.17,1.66a4.06,4.06,0,0,1-.35,1.47,4.48,4.48,0,0,1-.85,1.21,3.38,3.38,0,0,1-1.23.81,3.22,3.22,0,0,1-1.48.22,2.22,2.22,0,0,0-.63,0,1.91,1.91,0,0,1-.63,0,2.61,2.61,0,0,1-1.39-.17,3,3,0,0,1-1.09-.8,2.85,2.85,0,0,1-.61-1.2,2.68,2.68,0,0,1,0-1.43c.05-.54.09-1.09.14-1.66s.09-1.11.14-1.65a3.78,3.78,0,0,1,.3-1.49,3.56,3.56,0,0,1,.84-1.21,3.71,3.71,0,0,1,1.25-.78,3.44,3.44,0,0,1,1.51-.2Zm2.08-21.73a2.64,2.64,0,0,1,1.42.17,3.21,3.21,0,0,1,1.16.8,3,3,0,0,1,.69,1.21A2.56,2.56,0,0,1,358,47c0,.54-.1,1.08-.14,1.61s-.1,1.06-.14,1.6a3.57,3.57,0,0,1-.32,1.5,3.82,3.82,0,0,1-.86,1.2,3.76,3.76,0,0,1-1.27.78,3.41,3.41,0,0,1-1.49.19c-.45,0-.89,0-1.34,0a2.79,2.79,0,0,1-1.44-.16,3,3,0,0,1-1.14-.79,2.93,2.93,0,0,1-.67-1.24,2.61,2.61,0,0,1,0-1.44c.05-.54.1-1.08.16-1.63s.11-1.08.16-1.62a3.9,3.9,0,0,1,.29-1.48,3.45,3.45,0,0,1,.85-1.2,3.88,3.88,0,0,1,1.25-.76,3.3,3.3,0,0,1,1.51-.19,3.57,3.57,0,0,0,.65,0ZM356,21.7a2.73,2.73,0,0,1,1.43.23,3.24,3.24,0,0,1,1.11.83,3.32,3.32,0,0,1,.66,1.23,3.37,3.37,0,0,1,.11,1.45q0,.81-.09,1.62c0,.54-.05,1.08-.05,1.62a3.1,3.1,0,0,1-1,2.62A3.49,3.49,0,0,1,357,32a3.1,3.1,0,0,1-1.46.14,3.53,3.53,0,0,1-.65,0,3.53,3.53,0,0,0-.65,0,2.69,2.69,0,0,1-1.44-.18,3,3,0,0,1-1.12-.81A3.2,3.2,0,0,1,351,30a3,3,0,0,1-.07-1.45c0-.54.08-1.09.1-1.64s.06-1.1.11-1.64a3,3,0,0,1,.21-1.45,3.73,3.73,0,0,1,.77-1.22,3,3,0,0,1,2.64-.9h.63A4.44,4.44,0,0,1,356,21.7Zm7.6,21.7a2.65,2.65,0,0,1,1.42.18,3.27,3.27,0,0,1,1.16.77,2.87,2.87,0,0,1,.69,1.2,2.56,2.56,0,0,1,0,1.45c-.05.54-.1,1.07-.14,1.59s-.1,1-.14,1.59a3.57,3.57,0,0,1-.32,1.5,3.63,3.63,0,0,1-.86,1.18,3.87,3.87,0,0,1-1.27.76,3.41,3.41,0,0,1-1.49.19,5.1,5.1,0,0,0-.67,0c-.21,0-.43,0-.67,0a6.36,6.36,0,0,1-1.21-.12,2.56,2.56,0,0,1-1.11-.51,3.31,3.31,0,0,1-.82-1.5,4.62,4.62,0,0,1-.09-1.47c0-.54.1-1.07.16-1.6s.11-1.07.16-1.61a3.13,3.13,0,0,1,.28-1.48,3.6,3.6,0,0,1,2.07-2,3,3,0,0,1,1.51-.16,5.15,5.15,0,0,0,.67,0Zm.7-10.62a2.83,2.83,0,0,1,1.41.21,3.38,3.38,0,0,1,1.14.79,3.22,3.22,0,0,1,.7,1.22,2.74,2.74,0,0,1,.09,1.45q-.07.81-.12,1.59c0,.51-.07,1-.09,1.58a3.06,3.06,0,0,1-.28,1.45,3.45,3.45,0,0,1-2.11,1.85,3.06,3.06,0,0,1-1.44.13,5.35,5.35,0,0,1-.69,0c-.22,0-.44,0-.65,0a2.75,2.75,0,0,1-1.42-.16,3.13,3.13,0,0,1-1.16-.78A2.82,2.82,0,0,1,359,40.9a3,3,0,0,1,0-1.45c.05-.54.09-1.08.13-1.61s.06-1.06.08-1.6a3,3,0,0,1,.23-1.47,3.55,3.55,0,0,1,.83-1.18,3.35,3.35,0,0,1,1.23-.74,2.84,2.84,0,0,1,1.48-.11,3.59,3.59,0,0,0,.66,0A4.85,4.85,0,0,1,364.32,32.78Z" />
        <path
            d="M374,54.27a2.84,2.84,0,0,1,1.43.21,3.32,3.32,0,0,1,1.12.81,3.22,3.22,0,0,1,.69,1.24,3.08,3.08,0,0,1,.07,1.45c-.1,1.05-.17,2.13-.21,3.21a3.27,3.27,0,0,1-1.06,2.59,3.51,3.51,0,0,1-1.21.71,3,3,0,0,1-1.46.09H373l-.58-.06-.3,0a3,3,0,0,1-1.41-.26,3.49,3.49,0,0,1-1.14-.83,3.3,3.3,0,0,1-.7-1.22,2.57,2.57,0,0,1-.06-1.43l.21-3.17a3.06,3.06,0,0,1,.21-1.43,3.23,3.23,0,0,1,2-1.82,3.22,3.22,0,0,1,1.45-.1h.66Zm.85-10.69a2.79,2.79,0,0,1,1.44.17,3.14,3.14,0,0,1,1.12.8,3.09,3.09,0,0,1,.67,1.22,2.7,2.7,0,0,1,0,1.44c-.07.54-.12,1.08-.15,1.63s-.08,1.08-.13,1.62a3.15,3.15,0,0,1-.26,1.48,3.32,3.32,0,0,1-.84,1.15,3.51,3.51,0,0,1-1.25.7,3.19,3.19,0,0,1-1.48.13,3.86,3.86,0,0,1-.68,0l-.65-.07a3,3,0,0,1-1.41-.21,3.07,3.07,0,0,1-1.79-2,2.66,2.66,0,0,1,0-1.43c.05-.54.09-1.06.12-1.57s.08-1,.13-1.57a2.89,2.89,0,0,1,.23-1.46,3.35,3.35,0,0,1,.84-1.19,3.39,3.39,0,0,1,2.76-.84l.67,0A3.83,3.83,0,0,1,374.86,43.58Zm.94-10.77a2.89,2.89,0,0,1,1.43.16,2.75,2.75,0,0,1,1.14.8A3.27,3.27,0,0,1,379,35a2.49,2.49,0,0,1,0,1.43c-.05.54-.1,1.09-.14,1.63s-.1,1.08-.14,1.62a3.13,3.13,0,0,1-.28,1.46,3.7,3.7,0,0,1-.87,1.2,3.25,3.25,0,0,1-1.26.76,3,3,0,0,1-1.49.14,2.5,2.5,0,0,1-.67,0,3.75,3.75,0,0,0-.67,0,2.55,2.55,0,0,1-1.42-.17,3.29,3.29,0,0,1-1.16-.78,2.87,2.87,0,0,1-.69-1.2,2.55,2.55,0,0,1,0-1.45c.05-.54.09-1.07.14-1.6s.09-1.07.14-1.61a3.62,3.62,0,0,1,.32-1.48,3.4,3.4,0,0,1,.88-1.2A3.64,3.64,0,0,1,373,33a3.26,3.26,0,0,1,1.49-.14l.65,0Zm6.26,32.54a3,3,0,0,1,2.57,1,3.16,3.16,0,0,1,.65,1.23,3,3,0,0,1,0,1.45,14.66,14.66,0,0,1-.09,1.62,14.66,14.66,0,0,0-.09,1.62,3.44,3.44,0,0,1-.25,1.45,3.31,3.31,0,0,1-.79,1.2,3.51,3.51,0,0,1-1.19.76,2.58,2.58,0,0,1-1.46.12,2.22,2.22,0,0,1-.63,0,2,2,0,0,0-.64,0,2.94,2.94,0,0,1-1.42-.28,3.49,3.49,0,0,1-1.11-.87A3.67,3.67,0,0,1,377,73.4a2.74,2.74,0,0,1,0-1.45c0-.54,0-1.08.05-1.6s0-1.07,0-1.61a2.94,2.94,0,0,1,.23-1.45,3.68,3.68,0,0,1,.83-1.16,3.41,3.41,0,0,1,1.21-.73,2.87,2.87,0,0,1,1.46-.08,2.36,2.36,0,0,1,.65,0A2,2,0,0,0,382.06,65.35Zm3.69-43.41a2.57,2.57,0,0,1,1.44.13,3,3,0,0,1,1.15.79A3.18,3.18,0,0,1,389,24.1a2.71,2.71,0,0,1,0,1.44c-.05.55-.1,1.09-.16,1.63s-.11,1.08-.16,1.62a3.27,3.27,0,0,1-.28,1.5,3.93,3.93,0,0,1-.84,1.2,3.47,3.47,0,0,1-1.25.76,3.78,3.78,0,0,1-1.5.18l-.68,0a4,4,0,0,0-.69,0,2.76,2.76,0,0,1-1.4-.16,3.17,3.17,0,0,1-1.15-.78,3,3,0,0,1-.66-1.22,2.81,2.81,0,0,1,0-1.44c.05-.55.09-1.08.14-1.61s.09-1.06.14-1.61a3.62,3.62,0,0,1,.32-1.48,3.68,3.68,0,0,1,2.11-2,3.42,3.42,0,0,1,1.51-.2h.67A4.89,4.89,0,0,1,385.75,21.94Zm5.1,43.55a2.87,2.87,0,0,1,1.44.16,2.65,2.65,0,0,1,1.11.8,3.27,3.27,0,0,1,.63,1.23,2.65,2.65,0,0,1,0,1.45c0,.54-.07,1.09-.13,1.64s-.1,1.1-.12,1.64a3.9,3.9,0,0,1-.28,1.48,3.52,3.52,0,0,1-.81,1.22,3.61,3.61,0,0,1-1.23.79,2.85,2.85,0,0,1-1.48.18,1.92,1.92,0,0,0-.63,0h-.63a2.46,2.46,0,0,1-1.43-.19,3,3,0,0,1-1.09-.85,3.43,3.43,0,0,1-.63-1.25,3,3,0,0,1,0-1.45c0-.54.06-1.08.11-1.62s.08-1.08.1-1.62a3.32,3.32,0,0,1,.27-1.47,3.85,3.85,0,0,1,.81-1.2,3.23,3.23,0,0,1,1.21-.76,3.49,3.49,0,0,1,1.48-.17l.66,0Zm3.8-43.58a2.79,2.79,0,0,1,1.44.16,2.93,2.93,0,0,1,1.14.79,3.22,3.22,0,0,1,.69,1.24,2.52,2.52,0,0,1,0,1.44c-.05.55-.1,1.09-.14,1.63s-.1,1.08-.14,1.62a3.27,3.27,0,0,1-.28,1.5,3.85,3.85,0,0,1-.87,1.2,3.52,3.52,0,0,1-1.26.76,3.78,3.78,0,0,1-1.5.18h-1.3a2.9,2.9,0,0,1-1.44-.16,3,3,0,0,1-1.14-.8,3.11,3.11,0,0,1-.69-1.23,2.74,2.74,0,0,1,0-1.45c.05-.54.09-1.09.14-1.64s.09-1.1.14-1.64a3.5,3.5,0,0,1,.32-1.47,3.89,3.89,0,0,1,.86-1.2,3.56,3.56,0,0,1,2.76-.93Zm4.92,43.55a2.41,2.41,0,0,1,1.42.12,2.79,2.79,0,0,1,1.09.78,2.85,2.85,0,0,1,.62,1.21,2.75,2.75,0,0,1,0,1.45c0,.54-.1,1.08-.15,1.63s-.12,1.08-.16,1.62a3.73,3.73,0,0,1-.3,1.48,4,4,0,0,1-.83,1.24,3.87,3.87,0,0,1-1.23.83,3.07,3.07,0,0,1-1.47.22h-1.27a2.3,2.3,0,0,1-1.41-.14,2.7,2.7,0,0,1-1.07-.83,3.09,3.09,0,0,1-.6-1.25,3.05,3.05,0,0,1,0-1.41c.05-.54.09-1.09.12-1.64s.08-1.1.13-1.64a3.65,3.65,0,0,1,.3-1.47,3.87,3.87,0,0,1,.82-1.21,3.32,3.32,0,0,1,2.71-1l.65,0A3.51,3.51,0,0,1,399.57,65.46Zm4-43.48a2.77,2.77,0,0,1,1.44.16,3.08,3.08,0,0,1,1.15.79,3,3,0,0,1,.66,1.24,2.81,2.81,0,0,1,0,1.44c0,.55-.09,1.08-.14,1.61s-.09,1.06-.14,1.61a3.39,3.39,0,0,1-.26,1.5,3.65,3.65,0,0,1-.83,1.18,3.49,3.49,0,0,1-1.25.74,3.75,3.75,0,0,1-1.49.18,3.83,3.83,0,0,0-.67,0l-.67,0a2.9,2.9,0,0,1-1.44-.16,3,3,0,0,1-1.14-.8,3.11,3.11,0,0,1-.69-1.23,2.74,2.74,0,0,1,0-1.45c.05-.54.1-1.08.16-1.62s.11-1.08.15-1.63a3.06,3.06,0,0,1,.29-1.46,3.93,3.93,0,0,1,.84-1.2,3.58,3.58,0,0,1,1.23-.78,3.17,3.17,0,0,1,1.51-.16,1.58,1.58,0,0,0,.65,0A1.77,1.77,0,0,1,403.54,22Zm4.75,43.2a4.66,4.66,0,0,1,1.18.07,2.42,2.42,0,0,1,1.07.49,2.58,2.58,0,0,1,.81,1.45,4.76,4.76,0,0,1,0,1.41q-.08.81-.21,1.62a14.82,14.82,0,0,0-.21,1.63,4.23,4.23,0,0,1-.36,1.48,4.29,4.29,0,0,1-.84,1.25,3.62,3.62,0,0,1-1.23.85,3.73,3.73,0,0,1-1.48.3h-.63l-.63.06a2.45,2.45,0,0,1-1.41-.13,2.57,2.57,0,0,1-1.05-.79,2.92,2.92,0,0,1-.58-1.23,2.74,2.74,0,0,1,0-1.42c.05-.54.1-1.08.17-1.62s.13-1.08.18-1.62a3.66,3.66,0,0,1,.32-1.49,3.86,3.86,0,0,1,.84-1.21,3.92,3.92,0,0,1,1.21-.8,3.39,3.39,0,0,1,1.5-.24,2.85,2.85,0,0,0,.65,0A3.63,3.63,0,0,1,408.29,65.18Zm1.23-10.8a4.74,4.74,0,0,1,1.19.07,2.35,2.35,0,0,1,1.09.49,2.69,2.69,0,0,1,.83,1.45,7.06,7.06,0,0,1,.09,1.44c-.07.55-.15,1.08-.23,1.61s-.15,1.07-.19,1.61a3.34,3.34,0,0,1-.34,1.48,4.32,4.32,0,0,1-.86,1.23,3.53,3.53,0,0,1-1.25.82,3.62,3.62,0,0,1-1.49.24,3.51,3.51,0,0,1-.65,0,3.51,3.51,0,0,0-.65,0,5.17,5.17,0,0,1-1.18-.07,2.39,2.39,0,0,1-1.07-.5,2.61,2.61,0,0,1-.81-1.46,6.64,6.64,0,0,1,0-1.47c.07-.54.14-1.08.2-1.64s.11-1.1.16-1.64a3.13,3.13,0,0,1,.28-1.48,3.8,3.8,0,0,1,.86-1.22,3.59,3.59,0,0,1,1.25-.77,3.3,3.3,0,0,1,1.51-.2c.23,0,.45,0,.65,0A2.35,2.35,0,0,1,409.52,54.38Zm1.09-10.77a2.54,2.54,0,0,1,1.42.13,3.1,3.1,0,0,1,1.16.75,2.75,2.75,0,0,1,.67,1.19,2.58,2.58,0,0,1,0,1.43c0,.54-.1,1.07-.17,1.6s-.13,1.07-.18,1.61a3.57,3.57,0,0,1-.31,1.5,3.66,3.66,0,0,1-.87,1.18,4.05,4.05,0,0,1-1.26.78,3.19,3.19,0,0,1-1.5.21l-.63,0h-.67a7.22,7.22,0,0,1-1.21-.1,2.44,2.44,0,0,1-1.11-.5,3,3,0,0,1-.81-1.44,5.49,5.49,0,0,1-.07-1.45c.14-1.08.25-2.18.32-3.28a3.58,3.58,0,0,1,.32-1.48,3.7,3.7,0,0,1,.84-1.2,3.54,3.54,0,0,1,1.23-.76,3.44,3.44,0,0,1,1.51-.2,3.74,3.74,0,0,1,.67,0A2.5,2.5,0,0,0,410.61,43.61Zm1-10.76A2.78,2.78,0,0,1,413,33a3.07,3.07,0,0,1,1.16.77,3.25,3.25,0,0,1,.68,1.2,2.49,2.49,0,0,1,0,1.43c0,.54-.1,1.08-.16,1.61s-.11,1.06-.15,1.6a3.46,3.46,0,0,1-.32,1.49,3.88,3.88,0,0,1-.84,1.16,3.78,3.78,0,0,1-1.25.76,3.31,3.31,0,0,1-1.5.19,3.64,3.64,0,0,0-.66,0,4.83,4.83,0,0,1-.67,0,2.77,2.77,0,0,1-1.44-.16,3.05,3.05,0,0,1-1.15-.78,2.92,2.92,0,0,1-.66-1.21,2.65,2.65,0,0,1,0-1.45c.05-.54.1-1.08.14-1.62l.15-1.63a3.62,3.62,0,0,1,1.17-2.68A4,4,0,0,1,408.8,33a3.14,3.14,0,0,1,1.49-.16,3.64,3.64,0,0,0,.65,0A4.85,4.85,0,0,1,411.59,32.85Zm.85-10.69a2.56,2.56,0,0,1,1.4.17,3.35,3.35,0,0,1,1.15.8,3.07,3.07,0,0,1,.68,1.21,2.85,2.85,0,0,1,0,1.45c0,.54-.09,1.07-.13,1.57s-.07,1-.12,1.57a3.26,3.26,0,0,1-.26,1.48,3.39,3.39,0,0,1-.85,1.17,3.47,3.47,0,0,1-1.26.74,3.78,3.78,0,0,1-1.5.18,5,5,0,0,0-.65,0h-.65a2.83,2.83,0,0,1-2.56-.95,3.32,3.32,0,0,1-.67-1.24,2.92,2.92,0,0,1-.07-1.44c0-.55.09-1.08.14-1.61s.09-1.06.14-1.61a3.17,3.17,0,0,1,.28-1.46,3.73,3.73,0,0,1,.84-1.18,3.52,3.52,0,0,1,1.23-.74,3,3,0,0,1,1.48-.14,2.46,2.46,0,0,0,.67,0A2.13,2.13,0,0,1,412.44,22.16Zm.63-10.66a2.69,2.69,0,0,1,1.42.23,3.31,3.31,0,0,1,1.13.83,3.09,3.09,0,0,1,.68,1.23,3.38,3.38,0,0,1,.11,1.45q-.07.81-.12,1.59t-.06,1.59a2.93,2.93,0,0,1-.26,1.42,3.22,3.22,0,0,1-.83,1.13,3.28,3.28,0,0,1-1.23.71,3.19,3.19,0,0,1-1.44.12l-.65-.05-.68,0a2.78,2.78,0,0,1-1.43-.17,3.39,3.39,0,0,1-1.16-.8,2.89,2.89,0,0,1-.68-2.66c0-.54.08-1.08.1-1.63s0-1.08.07-1.62a3.18,3.18,0,0,1,.21-1.45,3.47,3.47,0,0,1,.81-1.16,3.18,3.18,0,0,1,1.23-.72,2.84,2.84,0,0,1,1.48-.09,1.77,1.77,0,0,0,.65,0A2,2,0,0,1,413.07,11.5ZM413.46.81a3.21,3.21,0,0,1,1.42.31A3.78,3.78,0,0,1,416,2a3.19,3.19,0,0,1,.68,1.24,3.34,3.34,0,0,1,.11,1.44c0,.54,0,1.07,0,1.59s0,1,0,1.59a3.18,3.18,0,0,1-.21,1.45,3.14,3.14,0,0,1-.8,1.12,3.05,3.05,0,0,1-1.21.67,2.93,2.93,0,0,1-1.44.08c-.21,0-.43-.05-.65-.06l-.65,0a2.78,2.78,0,0,1-1.44-.22A3.25,3.25,0,0,1,409.2,10a3.63,3.63,0,0,1-.67-1.24,3.08,3.08,0,0,1-.07-1.45c.05-.54.09-1.08.13-1.62s.05-1.08.05-1.62a3.15,3.15,0,0,1,.19-1.43,3.38,3.38,0,0,1,.76-1.18,3.05,3.05,0,0,1,1.16-.73A2.59,2.59,0,0,1,412.19.7Z" />
    </g>
</svg>