<?xml version="1.0" standalone="no"?>
<!DOCTYPE svg PUBLIC "-//W3C//DTD SVG 20010904//EN"
 "http://www.w3.org/TR/2001/REC-SVG-20010904/DTD/svg10.dtd">
<svg version="1.0" xmlns="http://www.w3.org/2000/svg"
 width="1216.000000pt" height="1216.000000pt" viewBox="0 0 1216.000000 1216.000000"
 preserveAspectRatio="xMidYMid meet">
<metadata>
Created by potrace 1.14, written by Peter Selinger 2001-2017
</metadata>
<g transform="translate(0.000000,1216.000000) scale(0.100000,-0.100000)"
fill="#000000" stroke="none">
<path d="M5097 12154 c-1 -1 -24 -4 -52 -7 -175 -19 -340 -141 -433 -322 -40
-77 -60 -151 -67 -245 -3 -41 -8 -97 -11 -125 -3 -27 -7 -70 -9 -95 -6 -66
-13 -127 -20 -184 -3 -28 -8 -69 -11 -91 -2 -22 -7 -51 -9 -65 -3 -14 -8 -36
-10 -50 -17 -87 0 -190 48 -285 23 -46 124 -155 144 -155 7 0 13 -3 13 -8 0
-9 81 -48 130 -62 19 -6 73 -10 120 -10 47 1 153 1 237 1 117 0 167 4 215 18
197 56 327 184 404 396 13 36 20 95 28 235 8 114 14 207 21 278 3 28 8 80 10
115 3 34 8 78 12 97 16 93 6 193 -28 278 -43 108 -115 194 -199 236 -90 46
-116 50 -328 51 -112 0 -204 -1 -205 -1z"/>
<path d="M6345 12154 c-27 -7 -59 -20 -122 -52 -156 -78 -283 -266 -298 -441
-2 -20 -4 -36 -5 -36 -1 0 -3 -34 -5 -75 -2 -41 -6 -104 -9 -140 -14 -169 -17
-209 -22 -260 -3 -30 -7 -71 -9 -90 -20 -164 -10 -239 41 -345 34 -69 113
-154 186 -200 32 -19 59 -35 60 -35 2 1 10 -1 18 -3 56 -18 123 -22 335 -21
214 1 247 4 305 22 129 42 242 141 303 265 45 92 58 139 63 246 4 80 9 170 19
302 2 30 6 75 10 100 17 134 24 338 13 394 -9 42 -34 97 -71 155 -30 47 -134
150 -151 150 -5 0 -17 6 -25 13 -14 12 -70 32 -121 44 -25 6 -493 12 -515 7z"/>
<path d="M4005 12118 c-22 -4 -103 -10 -180 -12 -152 -4 -200 -13 -285 -53
-145 -67 -248 -174 -304 -313 -34 -84 -36 -92 -42 -128 -3 -21 -7 -44 -9 -52
-3 -8 -7 -45 -10 -81 -3 -37 -8 -77 -10 -89 -2 -12 -7 -48 -11 -79 -3 -31 -8
-63 -9 -72 -2 -9 -6 -40 -10 -70 -6 -54 -11 -87 -19 -124 -7 -33 -17 -138 -17
-175 0 -233 82 -361 271 -422 57 -18 93 -21 300 -23 165 -1 248 2 278 11 23 7
46 13 50 14 56 17 99 39 167 86 65 45 148 128 138 138 -4 3 -1 6 5 6 12 0 75
125 82 165 1 3 5 19 11 37 5 18 11 55 13 83 16 171 19 205 32 300 4 28 8 66 9
85 2 19 4 35 5 35 1 0 3 14 4 30 4 33 16 116 23 155 26 146 -26 322 -125 425
-37 38 -121 98 -142 101 -3 0 -24 6 -48 13 -55 16 -116 19 -167 9z"/>
<path d="M7703 12119 c-23 -4 -56 -16 -75 -25 -18 -10 -36 -17 -40 -16 -5 1
-8 -2 -8 -7 0 -5 -9 -13 -20 -16 -34 -11 -138 -124 -174 -189 -29 -53 -60
-131 -59 -146 1 -3 -3 -13 -9 -23 -5 -10 -11 -60 -13 -110 -7 -164 -15 -269
-29 -412 -3 -27 -8 -75 -11 -105 -2 -30 -8 -83 -11 -118 -7 -72 8 -161 42
-237 22 -52 85 -141 113 -161 9 -7 27 -22 41 -34 29 -26 99 -62 153 -80 43
-14 481 -18 557 -5 25 4 61 16 81 26 20 10 39 15 43 12 3 -4 6 -1 6 5 0 7 5
12 11 12 15 0 90 53 131 93 75 73 134 188 142 280 2 20 5 40 8 42 3 3 2 25 -2
50 -4 25 -4 45 -1 45 3 0 7 57 7 128 1 70 5 159 8 197 14 169 15 333 1 386
-39 149 -121 263 -240 334 -78 46 -140 64 -245 69 -47 2 -85 4 -85 5 0 6 -289
6 -322 0z"/>
<path d="M3538 10364 c-2 -2 -27 -5 -55 -8 -55 -5 -102 -15 -118 -25 -5 -3
-15 -6 -21 -7 -56 -9 -192 -105 -250 -178 -89 -110 -129 -214 -139 -357 -3
-35 -8 -86 -11 -114 -4 -27 -8 -61 -9 -75 -3 -28 -13 -98 -21 -145 -10 -55
-14 -90 -19 -145 -3 -30 -8 -71 -11 -90 -8 -42 -8 -124 -1 -166 6 -39 47 -135
64 -152 7 -7 13 -17 13 -21 0 -12 92 -100 121 -115 89 -47 106 -56 124 -58 11
-2 25 -6 30 -10 6 -3 55 -4 110 -2 55 2 105 4 110 4 6 0 68 -1 138 -2 71 -2
131 0 134 5 2 4 8 5 12 3 21 -13 231 64 231 85 0 5 4 9 10 9 17 0 140 115 140
132 0 3 6 13 14 21 18 17 70 121 84 167 17 52 22 92 27 199 3 53 7 112 10 131
11 85 21 180 30 275 3 33 8 71 12 85 9 41 11 200 2 206 -5 3 -9 14 -9 25 0 34
-60 139 -108 191 -38 40 -119 100 -142 104 -3 0 -12 3 -20 6 -55 22 -92 26
-193 25 -63 -1 -113 -5 -111 -8 2 -4 -11 -4 -29 0 -17 4 -43 4 -57 1 -14 -3
-39 -3 -57 1 -18 4 -34 5 -35 3z"/>
<path d="M8947 10310 c-161 -61 -298 -205 -344 -360 -16 -54 -19 -90 -27 -350
-2 -69 -7 -154 -11 -190 -4 -36 -9 -90 -11 -120 -2 -30 -5 -85 -8 -121 -6
-101 27 -221 82 -292 42 -55 125 -126 174 -150 104 -51 101 -50 377 -53 227
-2 272 0 326 16 34 10 73 24 86 31 13 7 26 14 29 14 17 1 104 72 140 112 90
103 122 196 126 373 3 136 10 234 19 280 6 27 17 235 17 315 0 145 -75 294
-201 398 -36 30 -133 75 -186 88 -49 12 -82 13 -385 22 -133 4 -162 2 -203
-13z"/>
<path d="M3635 8641 c-3 -2 -89 -5 -192 -6 -228 -4 -283 -17 -421 -102 -61
-37 -151 -145 -191 -227 -43 -90 -59 -150 -66 -246 -6 -102 -21 -242 -29 -285
-4 -23 -16 -126 -21 -182 -2 -21 -6 -54 -10 -73 -31 -159 16 -314 130 -425 80
-79 216 -131 330 -126 28 1 136 3 240 5 105 2 209 8 233 15 126 34 247 121
321 232 35 53 77 145 86 191 9 42 16 111 20 203 6 101 7 111 20 220 4 33 9 71
10 85 6 54 17 147 22 175 7 42 7 155 0 185 -11 44 -51 140 -59 140 -5 0 -8 6
-8 13 0 23 -105 122 -163 155 -30 17 -72 34 -93 38 -49 10 -53 11 -59 14 -9 4
-96 5 -100 1z"/>
<path d="M8870 8613 c-48 -14 -136 -52 -159 -68 -28 -21 -128 -121 -135 -135
-11 -24 -31 -57 -43 -71 -9 -12 -40 -91 -47 -124 -7 -30 -16 -110 -21 -190 -7
-119 -14 -213 -20 -252 -3 -17 -7 -64 -11 -105 -3 -40 -8 -89 -10 -108 -18
-158 -15 -204 18 -290 29 -78 105 -177 163 -215 86 -56 198 -93 270 -88 22 1
122 3 222 3 99 1 196 6 215 10 98 25 128 37 183 69 81 47 183 153 220 226 16
33 30 65 32 70 1 6 4 21 8 35 12 55 15 84 20 173 3 50 7 121 10 157 3 36 8 92
10 125 3 33 8 94 12 135 10 98 9 260 -1 285 -5 11 -10 25 -11 31 -7 33 -62
125 -103 173 -55 65 -127 112 -212 141 -56 19 -89 21 -314 24 -184 2 -263 -1
-296 -11z"/>
<path d="M3476 6920 c-21 -4 -118 -7 -215 -8 -203 0 -269 -12 -366 -67 -164
-93 -273 -262 -289 -450 -4 -39 -8 -88 -11 -110 -2 -22 -7 -66 -10 -97 -10
-112 -17 -173 -21 -201 -3 -16 -7 -61 -9 -100 -3 -40 -9 -86 -13 -102 -9 -31
-8 -63 3 -150 6 -49 56 -168 81 -192 7 -7 21 -23 31 -36 44 -56 144 -118 238
-148 56 -17 478 -20 565 -4 66 13 168 53 195 77 8 7 34 29 58 48 61 49 163
192 151 212 -3 4 -1 8 4 8 5 0 9 6 10 13 0 6 6 30 12 52 9 34 20 162 23 273 1
17 4 32 7 32 3 0 5 19 6 43 0 23 4 76 8 117 4 41 9 93 11 115 2 22 7 69 11
105 11 94 12 141 2 175 -5 17 -11 43 -13 58 -19 101 -127 231 -236 283 -66 32
-157 59 -167 50 -3 -3 -10 -2 -16 2 -6 5 -28 5 -50 2z"/>
<path d="M4516 6922 c-2 -1 -14 -5 -26 -7 -83 -16 -206 -79 -275 -142 -28 -25
-95 -108 -95 -118 0 -5 -6 -16 -13 -24 -37 -43 -66 -146 -72 -251 -6 -93 -16
-213 -20 -245 -3 -16 -7 -64 -9 -105 -6 -93 -16 -192 -25 -245 -9 -49 -7 -126
4 -180 10 -50 65 -175 76 -175 5 0 9 -6 9 -14 0 -8 24 -36 54 -62 65 -59 143
-101 226 -122 28 -7 524 2 550 9 188 58 296 143 378 298 24 44 41 81 38 81 -3
0 -1 11 4 24 10 27 17 86 25 226 4 52 8 111 10 130 4 45 12 143 20 245 4 44
10 94 14 110 14 52 6 197 -13 233 -9 17 -14 32 -12 32 11 0 -50 100 -88 144
-58 70 -152 127 -251 153 -21 5 -504 10 -509 5z"/>
<path d="M6255 6922 c-1 -2 -76 -4 -166 -6 -169 -2 -228 -14 -305 -57 -86 -48
-76 -41 -140 -100 -53 -49 -81 -83 -89 -108 -3 -12 -10 -21 -15 -21 -7 0 -51
-105 -64 -155 -6 -22 -12 -84 -21 -195 -7 -84 -13 -147 -20 -217 -2 -27 -7
-87 -10 -134 -3 -47 -8 -96 -10 -110 -6 -30 -17 -111 -17 -124 1 -127 80 -288
179 -365 51 -40 83 -60 96 -60 7 0 17 -4 22 -9 6 -6 22 -12 37 -15 15 -2 33
-8 39 -12 17 -10 509 -5 554 7 73 18 162 55 183 76 7 7 17 13 22 13 4 0 37 29
73 65 68 67 147 202 147 249 0 13 3 26 7 29 3 4 7 24 9 44 1 21 5 83 8 138 3
55 8 111 11 125 2 14 6 57 9 95 3 39 8 88 11 110 3 22 7 63 10 90 2 28 7 70
11 95 9 50 9 131 1 170 -18 84 -77 190 -148 261 -48 48 -155 104 -224 116 -33
6 -195 10 -200 5z"/>
<path d="M7818 6924 c-3 -2 -111 -6 -239 -8 -158 -2 -241 -6 -256 -15 -13 -6
-23 -9 -23 -5 0 3 -7 0 -17 -7 -9 -8 -19 -13 -22 -12 -8 3 -109 -45 -129 -60
-51 -40 -132 -130 -159 -177 -54 -97 -67 -148 -79 -330 -3 -52 -8 -111 -10
-130 -2 -19 -5 -57 -7 -85 -3 -27 -8 -86 -12 -130 -4 -44 -9 -96 -11 -115 -11
-84 -13 -208 -3 -245 19 -75 73 -168 129 -224 51 -52 156 -118 197 -125 10 -2
36 -7 58 -11 22 -5 87 -7 145 -5 130 3 191 3 255 0 178 -9 379 105 480 272 54
91 75 160 80 268 2 36 4 65 4 65 1 0 4 32 6 70 5 74 13 150 15 150 1 0 3 14 4
30 2 17 7 55 11 85 4 30 9 80 11 110 1 30 6 70 9 89 13 69 4 183 -17 208 -6 7
-7 13 -3 13 14 0 -67 133 -108 177 -66 70 -158 119 -259 137 -15 2 -32 7 -36
10 -5 3 -11 3 -14 0z"/>
<path d="M3300 5200 c-20 -3 -109 -5 -199 -4 -117 2 -179 -2 -219 -12 -66 -18
-168 -65 -202 -94 -66 -56 -100 -89 -100 -95 0 -3 -8 -14 -17 -25 -23 -24 -72
-118 -78 -148 -2 -12 -6 -26 -9 -30 -9 -14 -14 -62 -21 -172 -4 -58 -8 -123
-10 -145 -2 -22 -6 -71 -9 -110 -12 -159 -17 -212 -23 -255 -28 -198 26 -338
179 -463 34 -28 140 -86 168 -92 89 -20 131 -25 210 -25 52 0 145 -1 206 -1
62 0 131 5 155 11 255 68 413 258 424 509 2 42 6 108 9 146 3 39 8 108 11 155
4 47 8 96 10 110 2 14 6 60 10 103 4 42 10 90 14 105 7 26 6 58 -2 127 -6 45
-40 145 -49 145 -4 0 -8 5 -8 11 0 20 -87 120 -137 159 -54 42 -139 76 -214
85 -29 4 -56 8 -59 9 -3 1 -21 0 -40 -4z"/>
<path d="M8983 5200 c-15 -3 -100 -5 -188 -4 -177 1 -221 -7 -325 -57 -92 -46
-203 -160 -251 -259 -32 -66 -41 -90 -56 -160 -2 -8 -5 -51 -8 -95 -5 -75 -9
-121 -20 -240 -3 -27 -7 -70 -9 -95 -3 -25 -8 -67 -12 -95 -20 -146 -19 -236
1 -345 4 -19 8 -40 9 -47 6 -32 55 -109 98 -153 55 -56 128 -94 214 -109 84
-15 493 -12 547 4 23 7 44 13 47 13 64 8 215 104 271 173 19 23 40 47 47 55
23 24 89 167 97 209 9 48 11 66 20 175 13 152 14 161 20 198 4 21 8 57 10 82
2 25 9 88 15 140 13 102 16 213 7 245 -3 11 -8 34 -13 50 -21 84 -104 190
-197 249 -101 65 -211 87 -324 66z"/>
<path d="M2774 3489 c-10 -3 -22 -5 -26 -3 -4 3 -9 0 -13 -6 -3 -5 -13 -10
-21 -10 -8 0 -31 -7 -52 -16 -20 -10 -42 -18 -49 -19 -45 -10 -178 -141 -213
-210 -14 -28 -29 -53 -35 -57 -5 -4 -7 -8 -3 -8 4 0 3 -12 -3 -27 -9 -25 -21
-111 -19 -138 3 -52 -2 -187 -15 -345 -3 -30 -7 -84 -10 -120 -2 -36 -8 -92
-11 -125 -4 -33 -7 -77 -6 -97 1 -48 30 -162 42 -166 6 -2 10 -12 10 -23 0
-10 4 -19 9 -19 5 0 12 -9 16 -20 6 -18 87 -105 129 -138 29 -23 119 -67 164
-81 24 -6 71 -14 105 -17 34 -2 88 -6 119 -9 87 -8 310 -10 341 -3 15 4 62 23
104 44 133 63 245 200 284 344 6 25 13 99 15 165 1 66 3 120 4 120 1 0 3 40 5
89 5 99 16 225 30 341 25 190 -43 337 -217 470 -11 9 -47 27 -113 55 -38 16
-100 22 -265 26 -91 3 -192 6 -226 7 -34 2 -70 0 -80 -4z"/>
<path d="M8848 3480 c-15 -4 -99 -8 -185 -8 -189 0 -231 -5 -303 -39 -30 -15
-57 -27 -60 -27 -15 -2 -112 -78 -116 -91 -4 -8 -10 -12 -15 -9 -5 3 -9 2 -9
-3 0 -4 -10 -20 -23 -35 -58 -69 -67 -84 -101 -168 -31 -77 -38 -117 -51 -292
-2 -42 -7 -92 -10 -110 -3 -18 -7 -53 -9 -78 -3 -25 -7 -65 -11 -90 -3 -25 -8
-63 -11 -85 -3 -22 -7 -97 -9 -167 -5 -148 9 -214 61 -294 91 -139 217 -185
488 -178 247 6 300 13 390 50 159 64 268 171 344 336 27 59 38 110 47 228 3
36 8 85 11 110 3 25 7 63 9 85 3 22 7 51 10 65 3 14 7 43 10 65 6 45 13 93 21
145 3 19 6 81 6 138 0 109 -24 209 -63 263 -10 15 -19 29 -19 32 0 3 -12 18
-27 33 -71 74 -146 108 -258 119 -33 3 -67 8 -75 10 -8 1 -27 -1 -42 -5z"/>
<path d="M2708 1795 c-2 -2 -21 -6 -43 -9 -160 -24 -291 -119 -365 -266 -36
-70 -74 -210 -58 -210 5 0 6 -5 3 -11 -10 -16 -12 -79 -2 -79 4 0 5 -5 1 -11
-3 -6 -6 -41 -5 -78 1 -64 1 -87 1 -113 0 -7 0 -26 1 -43 1 -16 0 -32 -1 -35
-6 -16 -4 -62 2 -66 5 -3 5 -10 1 -17 -3 -6 -7 -69 -9 -141 -2 -112 1 -141 20
-196 25 -76 58 -141 80 -159 9 -8 16 -17 16 -22 0 -26 131 -123 208 -154 82
-33 76 -32 341 -51 41 -3 81 -9 90 -13 15 -9 149 -7 181 2 42 12 130 51 159
72 52 37 135 134 160 188 40 85 47 132 49 287 1 74 4 173 6 220 11 201 18 284
22 291 2 4 4 38 5 76 3 202 -136 407 -326 479 -27 10 -52 19 -55 20 -3 0 -16
4 -30 7 -23 6 -116 13 -305 22 -44 3 -94 6 -112 8 -18 3 -34 3 -35 2z"/>
<path d="M4139 1726 c-2 -2 -22 -5 -44 -7 -22 -2 -55 -9 -72 -16 -18 -7 -33
-10 -33 -7 0 4 -7 1 -15 -6 -8 -7 -15 -10 -15 -6 0 6 -41 -15 -101 -50 -46
-27 -125 -111 -155 -165 -10 -19 -23 -37 -29 -41 -5 -4 -6 -8 -1 -8 5 0 4 -6
-2 -12 -24 -31 -41 -151 -46 -328 -3 -102 -8 -208 -11 -237 -3 -28 -7 -90 -9
-137 -3 -47 -7 -90 -11 -96 -11 -17 -7 -149 5 -188 43 -138 118 -239 235 -317
91 -60 129 -67 350 -71 110 -3 214 -5 230 -5 145 -5 326 104 411 246 66 111
84 178 89 328 7 207 17 365 32 487 4 36 7 110 7 165 0 89 -4 107 -29 160 -33
70 -66 117 -115 163 -33 31 -125 96 -139 98 -3 0 -18 6 -34 12 -50 21 -80 24
-279 27 -108 2 -201 6 -206 9 -5 3 -11 4 -13 2z"/>
<path d="M7219 1705 c-3 -2 -81 -6 -174 -8 -194 -5 -202 -6 -293 -49 -218
-102 -331 -275 -346 -528 -5 -98 -14 -207 -20 -265 -3 -22 -8 -71 -11 -110 -3
-38 -8 -81 -10 -95 -23 -136 -24 -284 -2 -306 4 -4 7 -15 7 -24 0 -35 64 -144
116 -195 109 -110 164 -124 471 -121 154 2 249 8 268 15 17 7 32 12 35 12 13
0 119 55 150 78 79 60 150 153 193 256 42 101 52 147 62 295 4 52 8 106 10
120 2 14 6 52 10 85 4 33 9 68 11 79 2 10 6 44 9 75 3 31 8 67 11 81 11 51 13
213 3 268 -31 165 -161 298 -309 316 -14 2 -41 6 -60 10 -56 10 -127 16 -131
11z"/>
<path d="M5469 1696 c-2 -3 -17 -7 -32 -10 -16 -3 -63 -22 -105 -43 -137 -67
-257 -211 -293 -353 -16 -65 -17 -70 -24 -235 -3 -82 -8 -170 -10 -195 -2 -25
-6 -92 -10 -150 -4 -58 -10 -121 -14 -140 -9 -42 -7 -129 3 -185 10 -48 65
-175 77 -175 5 0 9 -6 9 -12 0 -23 106 -113 171 -145 97 -49 140 -54 389 -50
205 3 231 6 290 27 75 27 220 122 220 145 0 3 13 20 30 38 16 18 30 36 30 41
0 5 6 17 14 25 11 14 35 70 62 146 9 26 11 44 18 130 4 39 8 93 11 121 2 28 7
85 10 125 2 41 7 85 10 99 15 73 21 319 11 411 -12 111 -84 234 -176 301 -40
29 -134 63 -200 72 -53 8 -485 18 -491 12z"/>
</g>
</svg>
